<?xml version="1.0" encoding="UTF-8"?>
<svg id="Layer_1" xmlns="http://www.w3.org/2000/svg" version="1.1" viewBox="0 0 531 531">
  <!-- Generator: Adobe Illustrator 30.2.1, SVG Export Plug-In . SVG Version: 2.1.1 Build 1)  -->
  <rect width="531" height="531" fill="#c4fe1e"/>
  <g>
    <path d="M265.5,143.97c-67.01,0-121.53,54.52-121.53,121.53s54.52,121.53,121.53,121.53,121.53-54.52,121.53-121.53-54.52-121.53-121.53-121.53ZM164.5,253.4c4.2-35.25,27.02-66.2,59.54-80.78l5.07-2.27-2.49,4.96c-9.99,19.91-16.49,48.49-17.84,78.41l-.09,1.89h-44.46l.27-2.21ZM224.04,358.38c-32.53-14.57-55.34-45.53-59.54-80.78l-.27-2.21h44.46l.09,1.89c1.35,29.92,7.85,58.5,17.84,78.41l2.49,4.96-5.07-2.27ZM255.61,363.28l-3.49-4.13c-10.12-11.99-21.62-39.74-23.54-81.68l-.1-2.07h27.13v87.89ZM255.61,255.61h-27.13l.1-2.07c1.92-41.94,13.42-69.7,23.54-81.68l3.49-4.13v87.89ZM306.95,172.62c32.53,14.57,55.34,45.53,59.54,80.78l.27,2.21h-44.46l-.09-1.89c-1.35-29.92-7.85-58.5-17.84-78.41l-2.49-4.96,5.07,2.27ZM275.39,167.72l3.49,4.13c10.12,11.99,21.62,39.74,23.54,81.68l.1,2.07h-27.13v-87.89ZM275.39,363.28v-87.89h27.13l-.1,2.07c-1.92,41.94-13.42,69.7-23.54,81.68l-3.49,4.13ZM366.5,277.61c-4.2,35.25-27.02,66.2-59.54,80.78l-5.07,2.27,2.49-4.96c9.99-19.91,16.49-48.49,17.84-78.41l.09-1.89h44.46l-.27,2.21Z" fill="#100f1a"/>
    <path d="M433.52,196.66c9.02,21.85,13.59,44.97,13.59,68.84s-4.57,46.98-13.59,68.84c17.44-15.79,28.7-33.9,32.74-52.79.41-5.27.63-10.76.63-16.05s-.22-10.69-.66-16.18c-4.06-18.83-15.31-36.9-32.71-52.66Z" fill="#100f1a"/>
    <path d="M97.48,196.66c-17.44,15.8-28.7,33.91-32.74,52.79-.41,5.23-.63,10.71-.63,16.05s.22,10.82.67,16.31c4,18.65,15.26,36.74,32.7,52.53-9.02-21.85-13.59-44.96-13.59-68.84s4.57-46.98,13.59-68.84Z" fill="#100f1a"/>
    <path d="M131.72,358.1c13.1,7.04,27.51,12.99,42.96,17.73-32.89-27.11-52.24-67.62-52.24-110.34s19.35-83.23,52.23-110.34c-15.45,4.74-29.86,10.69-42.95,17.73-19.01,27.35-29.06,59.36-29.06,92.6s10.05,65.26,29.06,92.6Z" fill="#100f1a"/>
    <path d="M426.48,265.5c0-33.24-10.05-65.26-29.06-92.6-13.09-7.04-27.51-12.99-42.95-17.73,32.88,27.11,52.23,67.62,52.23,110.34s-19.35,83.23-52.24,110.34c15.45-4.74,29.86-10.69,42.96-17.73,19.01-27.35,29.06-59.36,29.06-92.6Z" fill="#100f1a"/>
  </g>
</svg>