<?xml version="1.0" encoding="UTF-8"?>
<svg id="Layer_1" xmlns="http://www.w3.org/2000/svg" version="1.1" viewBox="0 0 72.51 61.62">
  <!-- Generator: Adobe Illustrator 30.2.1, SVG Export Plug-In . SVG Version: 2.1.1 Build 1)  -->
  <g>
    <path d="M.53,10.44c.38-1.5.89-2.65,1.79-4.08.25-.39.32-.53.32-.61-.03-.54-1.2,1.01-1.82,2.4C.37,9.18-.03,10.54,0,10.96c0,.21.2.3.33.16,0,0,.12-.33.2-.68Z" fill="#fff7e6"/>
    <path d="M.73,13.63c.03.14.2.21.27.12.04-.09.26-.94.3-1.18.09-.51.39-1.64.52-1.93.07-.17.2-.47.27-.69.08-.21.17-.45.21-.53.04-.08.14-.29.22-.47.54-1.25,1.41-2.53,2.77-4.09.45-.52.53-.7.28-.65-.54.11-1.57,1.15-2.45,2.47-1.1,1.65-1.82,3.28-2.14,4.87-.1.49-.28,1.96-.25,2.08Z" fill="#fff7e6"/>
    <path d="M3.39,48.4c-1.18-.74-2.02-1.81-2.26-2.87-.06-.26-.12-.32-.2-.19h0c-.07.13-.07.64,0,.85.34,1.15,1.61,2.44,2.83,2.86.25.09.45.07.45-.04,0-.04-.47-.4-.82-.61Z" fill="#fff7e6"/>
    <path d="M44.26,10.77c1.51,1.2,1.85,1.71,2.95,4.41.53,1.3.7,1.98.77,3.09.03.54.05.61.1.6.14-.04.23-.87.15-1.53-.1-.89-.41-1.91-.88-2.93-.1-.21-.25-.58-.33-.8-.23-.64-.44-1-1-1.74-.48-.62-1.44-1.41-2.06-1.71-.09-.04-.17-.08-.17-.07,0,0-.05.02-.09.05v-.02c-.16.07-.14.1.56.65Z" fill="#fff7e6"/>
    <polygon points="1.01 13.74 1 13.74 1 13.75 1.01 13.74" fill="#fff7e6"/>
    <path d="M48.48,28.97h-.02c-.04-.72-.36-1.98-.66-2.65-.09-.19-.21-.5-.27-.67-.25-.76-.49-1.24-.78-1.61-.15-.19-.15-.22,0-.4.14-.18.25-.38.41-.75l.12-.29-.04-.22c-.14-.74-.48-1.21-.97-1.39-.12-.04-.13-.05-.1-.13.11-.26.24-1.04.29-1.66.04-.6.04-.67-.02-1.04-.12-.75-.21-.99-.66-1.8-.17-.31-.23-.43-.26-.62-.15-.91-.75-2.3-1.22-2.8-.2-.21-.6-.49-1.06-.74-.22-.12-.25-.15-.36-.35-.14-.25-.27-.36-.62-.51-.13-.06-.35-.16-.49-.23l-.26-.12-.41.03c-.58.04-.86.19-1.16.63l-.11.16-.12-.06c-.28-.14-.56-.19-1.03-.18h-.45l-.25-.13c-.14-.08-.36-.18-.5-.23-.35-.12-.33-.11-.4-.4-.19-.78-.82-2.41-1.17-3.02-.06-.1-.28-.52-.49-.91-.8-1.51-1.48-2.42-2.46-3.32-.51-.46-1.13-.97-1.42-1.15-.13-.08-.29-.2-.37-.26-.08-.07-.32-.24-.55-.39-.23-.15-.51-.34-.64-.42-.55-.36-1.32-.66-1.68-.66-.2,0-.34-.03-.74-.15-.65-.2-.99-.27-1.61-.36-.28-.04-.52-.08-.53-.08s-.31-.04-.67-.06c-.68-.05-1.74-.03-2.73.04-.26.02-.71.07-1,.1-.28.04-.69.08-.9.11-.91.1-2.92.67-4.46,1.28-1.37.54-3.73,1.82-4.84,2.63-1.62,1.18-2.46,1.93-3.3,2.94-2.05,2.47-2.84,3.88-3.76,6.74-.36,1.11-.53,1.93-.66,3.25-.07.64-.07.84,0,1.27.07.41.17.53.43.49.09-.01.2-.03.23-.05.06-.02.06-.01.03.09-.1.41-.14,1.24-.08,1.66,0,.04.02.28.04.52.02.29.07.63.14.98l.11.53-.2.31c-.43.67-.76,1.57-.71,1.91.01.07-.02.1-.25.27-.15.1-.36.28-.47.39-.36.35-.93,1.11-1.01,1.34-.02.06-.13.32-.24.57-.19.43-.52,1.33-.65,1.75-.24.79-.32,2.42-.14,2.8.03.05.07.24.11.42.17.83.6,1.91.99,2.44.06.08.15.22.19.3.04.08.15.21.23.3.18.2.18.18,0,.36-.18.17-.44.65-.52.97-.05.19-.05.44,0,.71.07.38.56.99,1.07,1.36.06.04.03.32-.12.97-.15.7-.25,2.67-.16,3.31.16,1.19.53,2.43.83,2.86.29.4.9.86,1.38,1.03.66.24,1.25.22,1.96-.06.17-.07.48-.19.69-.27.55-.21,1.36-.8,2.23-1.61.17-.16.44-.41.61-.56.71-.64,1.39-1.41,2.03-2.3l.25-.35.19.13c2.43,1.7,4.45,2.53,7.11,2.93.17.03.32.05.44.07,1.18.06,2.92.08,4.74-.11l-.08-.44c-.86.1-2.81.16-3.48.11-2.13-.17-4.05-.68-5.83-1.52-.79-.38-1.75-.93-1.63-.93,0,0,.14.04.29.09,1.1.35,2.29.48,4.08.45l1.2-.02.4.23c1.44.82,3.14,1.34,4.95,1.51l-.07-.37c-1.11-.09-2.07-.31-3.11-.73-.37-.15-1.48-.67-1.53-.72-.02-.02.09-.04.23-.05,1.17-.13,2.14-.33,3.3-.67.3-.08.56-.16.58-.16,0,0,.02.01.02.01l-.19-.82c-.45-.53-1.06-1.35-1.56-2.08h-.02c-.57-.84-1.28-1.99-1.24-2.02.02-.02.74-.22,1.56-.45l-.09-.3c-.31.08-.54.14-.63.17-.79.22-.98.27-1.03.27-.12,0-.95-1.7-1.56-3.2-.24-.58-.49-1.18-.57-1.36-.07-.17-.17-.41-.2-.52-.04-.11-.14-.41-.24-.66-.28-.73-.4-1.14-.59-1.99l-.06-.3.22-.12c.12-.06.08-.3-.02-.25-.26.11-.27.11-.31-.05-.02-.07-.06-.24-.09-.37-.27-.98-.64-3.55-.74-5.16-.02-.33-.04-.71-.05-.86-.04-.57-.04-1.19,0-1.23.04-.03,1.37-.8,1.93-1.11.4-.22,2.16-1.07,3.22-1.56,1-.46,2.35-1.02,2.46-1.02.02,0,.1.14.19.3.15.31.68,1.31.76,1.45.05.09.14.1.11.01-.01-.03-.08-.23-.15-.45-.16-.53-.21-.68-.38-1.08-.07-.19-.14-.35-.14-.36,0-.06.65-.31,1.84-.71.65-.22,3.41-.99,4.02-1.12.2-.04.49-.12.66-.16.17-.04.34-.09.38-.09s.25.18.63.56c1.06,1.06,2.09,2.59,2.83,4.18.3.64.43.93.64,1.39h0c.59,1.34,1.18,3.68,1.36,5.41.07.62.12,1.59.1,1.94v.3l-.19.2c-.42.46-2.47,2.09-3.47,2.75-1.48.98-2.47,1.61-2.79,1.76-.08.04-.32.18-.53.3-.21.12-.4.22-.41.21-.02,0-.37-1.44-.39-1.53-.05-.28-.14-.45-.22-.47-.15-.03-.18.13-.1.46.08.28.39,1.67.25,1.75-.17.09-.59.27-1.06.45h.83s0,0,0,0c0,0,0,0,0,0,.41-.21.4-.2.42-.13,0,.02.02.11.04.25l.37.09c-.03-.21-.06-.4-.07-.46l-.02-.1.48-.26c.88-.48,1.55-.88,3.12-1.89.53-.35,1.42-.97,1.89-1.34.58-.45,1.52-1.23,1.66-1.36.2-.2.2-.19.2.29,0,1.47-.28,3.13-.85,5.17l.36-.02c.14-.5.35-1.41.45-1.93.23-1.17.28-1.49.34-2.8l.06-1.24.37-.41c.21-.23.46-.51.57-.63.66-.73,1.64-2.12,1.94-2.77q.1-.22.16.54c.1,1.24-.08,3.58-.36,4.54h0c-.2.67-.98,2.11-1.56,2.85-.32.41-1.19,1.39-1.59,1.77-.03.03-.04.04-.06.06l.46-.03c1.11-1.1,1.8-1.94,2.2-2.7.09-.16.16-.3.17-.3,0,0-.02.11-.06.23h0c-.26.8-.68,1.81-1.13,2.7l.78-.04c.3-.62.52-1.2.79-2.06.06-.19.12-.35.14-.35s.24.08.49.18c.25.1.54.2.65.23.1.02.36.09.57.15.52.16,1.51.37,1.85.4,1.6.14,2.65.02,3.39-.38.61-.34,1.08-1.03,1.2-1.8.03-.16.06-.35.08-.42.07-.24.11-.76.09-1.16ZM42.93,12.54h0c.65.21.93.55,1.64,2.02.15.3.26.56.25.57-.01.01-.09-.06-.19-.16-.3-.29-.92-.68-1.19-.76-.13-.03-.32-.09-.41-.12-.42-.13-.67-.09-.98.15-.08.06-.15.11-.16.1-.1-.11-.39-.94-.38-1.09,0-.17.1-.46.17-.53.24-.26.77-.33,1.26-.18ZM40.35,11.88c.24-.46.63-.61,1.15-.45.4.13.67.27.88.46l.19.18h-.39c-.33.02-.42.03-.55.1-.28.13-.52.4-.62.67l-.04.13-.06-.09s-.16-.23-.29-.4c-.32-.42-.34-.46-.27-.6ZM19.11.9h0c.48-.14,1.59-.32,2.48-.4.34-.03.77-.07.95-.09.58-.06,1.9-.07,2.37,0,.23.03.65.08.94.11.52.05.94.15,1.9.43.8.23,2.22.93,2.86,1.41.12.09.46.34.76.56,1.1.8,1.46,1.1,1.87,1.58,1.14,1.29,2.51,3.88,3.07,5.81.08.27.15.51.16.54t-.67.09h-.12l-.2-.58c-.5-1.44-1.15-2.64-2.05-3.75-1.65-2.05-2.41-2.72-4.17-3.71-1.06-.59-1.82-.85-3.29-1.11-1.23-.21-1.36-.22-2.6-.21-1.81.02-2.47.12-4.21.65-2.63.79-5.21,2.31-6.98,4.11-.58.59-.96,1.04-1.54,1.88-.24.34-.52.75-.63.9-.68.96-1.38,2.47-1.94,4.19-.28.88-.39,1.33-.46,1.93-.03.25-.07.67-.11.95-.03.27-.08.67-.1.88l-.04.38h-.18c-.1-.02-.33-.05-.52-.08l-.35-.04.04-.5c.06-.73.29-2.04.48-2.74.7-2.58,1.34-4.04,2.56-5.85,1.32-1.96,2.35-3.08,3.75-4.14,1.08-.81,1.87-1.31,2.98-1.87,1.36-.69,2.46-1.18,2.99-1.33ZM8.19,32.84c-.07-.16-.21-.5-.32-.74l-.19-.44v-.38c.02-.36.02-.4.13-.64.2-.48.77-2.03.79-2.16.03-.16.05-.13.16.25.25.88.3,1.33.26,2.26-.03.68-.04.71-.15,1.09-.12.4-.49,1.15-.53,1.1h0s-.08-.17-.15-.34ZM8.33,36.07h0s.07-.1.07-.1l.33.16c.34.17.76.3,1.07.35.52.07,1.47-.03,1.97-.21.31-.11.86-.38.99-.48l.14-.1s.08.14.18.32c.23.44.33.6.69,1.12.17.25.31.46.31.48,0,.05-1.32.04-2.12-.01-1.2-.09-3-.42-3.22-.59-.1-.08-.48-.75-.48-.83,0-.02.03-.07.07-.11ZM12.36,16.31h0c.22-.06.44-.1.49-.1h.09l-.16.3c-.53,1.04-1.09,2.45-1.29,3.23-.04.17-.09.32-.09.33,0,0-.12-.05-.26-.13-.78-.44-1.27-.57-1.96-.53-.2.01-.36,0-.36,0,0-.12,1.26-1.99,1.78-2.68l.16-.2.2-.02c.74-.08,1.05-.12,1.4-.2ZM10.98,16.27l.15-.17c.81-.94,2.1-2.05,3.4-2.92.73-.49,1.74-1.09,1.74-1.04,0,0-.12.11-.27.23h0c-.9.69-1.9,1.86-2.58,3.01-.15.25-.27.46-.28.46,0,0-.24.06-.52.12-.28.06-.58.12-.66.14-.08.02-.29.06-.45.08-.17.02-.35.05-.42.07l-.11.02ZM13.1,22.01c-.29-.46-.83-1.15-1.1-1.41l-.31-.3.13-.48h.01c.27-.94.82-2.29,1.32-3.25.29-.56.16-.48,1.15-.66.72-.13,1.21-.25,1.85-.46.22-.07.41-.12.41-.11,0,.02-.02.2-.06.41-.23,1.25-.27,1.64-.34,3.08l-.07,1.39-.4.23c-.81.48-1.38.86-2.14,1.44-.17.13-.33.24-.34.24s-.06-.06-.11-.12ZM15.21,15.43c-.23.06-1.57.31-1.58.29-.02-.02.44-.72.7-1.07,1.06-1.41,2.3-2.51,3.6-3.18.17-.09.18-.08,0,.14h-.01c-.37.49-.83,1.68-1.17,3.01-.05.18-.09.33-.1.34-.02.03-1.1.37-1.44.47ZM17.07,14.78s.06-.25.12-.46c.19-.73.6-1.88.78-2.18.26-.42.69-.88.91-.97.09-.03.22-.05.47-.05.33,0,.35,0,.64.15h-.02c.36.17.56.34,1.34,1.14l.59.6-.12.06c-.07.03-.28.12-.47.19s-.72.29-1.17.48c-.91.37-1.17.47-2.21.83-.91.31-.88.3-.86.21ZM21.58,12.15c-.35-.37-.74-.76-.87-.86-.22-.18-.81-.49-.91-.49-.14,0,.06-.07.53-.21.68-.19,1.5-.27,2.35-.23.97.06,3.06.49,2.93.61-.17.15-3.03,1.72-3.31,1.81v.02c-.08.02-.16-.06-.72-.65ZM23.15,10.1c-.31-.02-.33-.06-.07-.09.12-.01.24-.03.27-.04.13-.03,1.77-.06,2.14-.04.49.03,1.57.14,1.59.16,0,0-.01.04-.05.07-.12.09-.96.55-1,.55h-.01s-.21-.06-.4-.13c-.56-.2-1.66-.42-2.47-.48ZM26.33,9.53c-.96-.11-3.15-.07-4.08.07-2.94.44-5.6,1.47-8.1,3.16-2,1.35-3.17,2.47-4.74,4.57-.55.73-1.14,1.75-1.27,2.19-.05.15-.14.27-.27.35-.11.06-.26.17-.34.23s-.15.1-.15.09c-.07-.12-.09-.62-.04-1.39l.05-.83.11-.03c.07-.02.15-.07.24-.17.16-.17.18-.26.14-.41h.02c-.03-.12.01-.63.13-1.54.22-1.62.6-2.89,1.35-4.51.61-1.32.79-1.62,1.34-2.21,1.31-1.41,2.76-2.45,4.51-3.25,2.09-.94,4.1-1.52,6-1.73.33-.03,1.58-.03,2.01,0,.74.07,1.11.13,1.79.32,1.17.32,2.74,1.04,3.46,1.58,1.23.92,2.07,1.79,2.9,2.98.46.67,1.45,2.51,1.38,2.57,0,0-.08-.03-.17-.08-.47-.28-2.15-.98-3.15-1.31-.78-.25-2.19-.55-3.12-.65ZM3.85,18.24h0c-.14.05-.26.09-.26.09,0,0-.02-.11-.04-.23-.14-.87.53-3.95,1.25-5.8.3-.77.59-1.31,1.31-2.43,1.28-2.02,2.15-3.04,3.44-4.06,1.96-1.55,3.15-2.33,5.05-3.31.73-.38,1.46-.69,1.24-.54-.04.02-.21.11-.38.2-.69.34-2.13,1.31-3.05,2.05-.76.6-1.77,1.69-2.58,2.77-1.17,1.55-2.1,3.18-2.52,4.41-.65,1.89-1.19,4.25-1.25,5.44l-.03.54-.16.04c-.09.02-.31.11-.49.2-.18.08-.54.24-.8.34-.26.1-.59.23-.73.29ZM4.07,23.53c.06-.08.15-.21.19-.29.04-.08.12-.19.17-.24.11-.12.16-.23.11-.29-.02-.02-.05-.16-.07-.29-.02-.14-.07-.44-.11-.67-.09-.51-.18-1.23-.21-1.71-.02-.36.04-1.29.1-1.34.01-.01.25-.12.53-.24.28-.12.59-.26.71-.32.11-.06.21-.1.22-.1s0,.31,0,.69,0,.88.01,1.11c.02.23.04.62.06.86.07,1.09.1,1.31.24,1.67.15.4.4.71,1.05,1.28.15.13.45.44.67.68.47.52.57.59.5.33-.09-.34-.42-.76-.99-1.25-.4-.35-.74-.7-.81-.86-.13-.29-.22-.63-.25-.96-.02-.19-.05-.57-.07-.84-.1-1.16-.11-2.79-.03-2.85.04-.03.48-.03.67,0h.08v.75c-.03,1.29.04,1.97.26,2.71.16.53.23.63.68,1.08,1.25,1.26,1.66,1.83,2.11,2.92.28.67.53,1.71.83,3.39.19,1.05.23,2.42.09,3.14-.22,1.22-.71,2.19-1.24,2.47-.07.04-.22.14-.33.23-.13.1-.25.17-.33.19-.07.01-.15.03-.17.04-.04,0-.06-.04-.08-.3-.01-.17-.04-.41-.06-.53l-.03-.22.16-.25c.56-.91.87-2.26.81-3.48-.06-1.05-.25-1.74-.67-2.46-.09-.15-.11-.23-.11-.33.01-.33-.19-.85-.41-1.08-.27-.28-.75-.4-1.11-.26-.21.08-.22.07-.19-.07.04-.18,0-.7-.07-.91-.12-.34-.38-.56-.78-.65-.4-.09-.75-.03-1.29.24l-.33.16-.25-.04c-.2-.03-.29-.03-.45,0-.11.02-.21.04-.23.04-.01,0-.01-.09,0-.19h-.01c.05-.31.21-.67.43-.96ZM4.29,39.03v-.04c-.18-.05-.35-.09-.38-.09-.33,0-1.69-.86-1.93-1.23-.24-.36-.13-1.24.18-1.61l.08-.09.11.12c.16.19.78.59,1.09.71.25.1.28.1.38.06.06-.02.11-.06.11-.07,0-.05-.37-.4-.61-.57-.13-.09-.34-.28-.47-.44-.13-.16-.3-.32-.36-.36-.25-.16-.77-1.01-1.16-1.86-.33-.75-.54-1.71-.58-2.62-.05-1.35.4-2.99,1.14-4.1.48-.73,1.32-1.43,1.93-1.6.31-.09.33-.08.2.08-.64.75-1.44,2.55-1.62,3.64-.14.83.01,1.67.29,1.58.03,0,.04-.14.05-.5,0-.53,0-.49.32-1.65.18-.65.68-1.7,1.06-2.25.36-.51.92-1.09,1.23-1.25.37-.2.7-.23.94-.08.21.13.24.19.31.52.11.52.03.83-.32,1.19-.35.36-.59.68-.84,1.18-.73,1.4-1.08,2.8-.84,3.31.05.11.1.17.14.18.06,0,.07-.03.14-.43.25-1.49.95-2.93,1.87-3.84.32-.32.37-.35.54-.41.46-.14.8.03.93.49.22.74.2.82-.81,3.42-.16.42-.26.77-.25.88.02.23.19.77.38,1.26.28.72.52,1.42.59,1.74.07.33.06.81-.03,1.01-.03.07-.07.21-.08.3-.03.24-.24.59-.49.83-.22.21-.52.39-1.02.6-.31.13-.34.16-.35.28-.01.24.27.25.73.04.17-.08.32-.13.35-.12.06.02.14.47.12.75-.02.35-.1.49-.46.78-.41.33-.47.35-.99.41-.51.06-1.05,0-1.62-.15ZM8.57,41.21h-.03c-.75.95-1.27,1.45-1.91,1.85-.4.24-.44.26-.62.27-.22,0-.31-.04-.44-.22-.22-.33-.31-.84-.28-1.59.03-.54.06-.8.23-1.54l.08-.34.37-.04c.4-.05.93-.21,1.1-.33.25-.18.61-.74.69-1.07.06-.25.02-.66-.09-.98l-.1-.28.13-.11c.07-.06.14-.11.15-.11s.07.1.13.23.21.39.33.59c.63,1.02.8,1.28,1.08,1.64.17.22.3.41.3.43,0,.06-.71,1.06-1.12,1.6ZM16.57,42.26c-1.02-.05-2.15-.25-2.97-.51-.34-.11-1.08-.43-1.11-.49,0-.02.07-.18.17-.36.24-.43.28-.74.15-1.06h-.01c-.04-.1-.07-.21-.06-.24,0-.03,0-.14-.02-.24-.09-.44-.36-.81-.71-.99l-.19-.1-.39.03c-.21.02-.46.04-.55.04s-.18.02-.21.04c-.15.09-.35.29-.46.44l-.13.17-.1-.1c-.16-.16-.97-1.31-.96-1.38,0,0,.18.03.41.08.22.05.73.14,1.13.21.98.15,1.5.19,2.74.17h1.05l.6.73c1.24,1.54,2.21,2.5,3.27,3.25.21.15.37.29.36.3-.02.04-1.33.04-2.01.01ZM21.32,38.1c.44.7.93,1.44,1.09,1.64.15.2.41.54.57.74.16.21.39.49.51.62s.22.25.21.25-.32.09-.69.19c-1.09.29-1.91.46-2.95.58-.29.04-.58.07-.64.08-.13.02-.48-.2-1.19-.75-.63-.49-.74-.58-1.39-1.22-.63-.62-2.03-2.2-2.02-2.3,0-.03.19-.05.92-.13h-.02c1.03-.11,2.96-.51,4.38-.9.44-.12.31-.24,1.22,1.2ZM17.39,29.4c.22.74.46,1.5.65,2.05.05.13.21.54.37.92.16.38.39.94.52,1.26.31.76.61,1.41,1.03,2.22.19.36.34.66.33.67-.03.02-1.07.29-1.77.45-1.6.36-2.19.47-3.29.58l-.69.07-.07-.09c-.24-.3-1.19-1.94-1.19-2.05h0s.12-.15.26-.29c.55-.58.97-1.28,1.33-2.26.38-1.03.42-1.2.48-2.36l.06-.99.44-.27c.63-.39,1.22-.72,1.27-.71.02,0,.14.36.27.8ZM16.89,27.34c.09.44.18.84.18.87.01.07-.11.15-.58.38-.19.09-.51.27-.71.39-.42.26-.43.26-.42.1.02-.33-.13-1.7-.25-2.25-.31-1.5-.46-1.92-1.32-3.64-.2-.4-.36-.73-.36-.73,0-.02.76-.61,1.13-.88h-.01c.4-.29,1.48-.99,1.54-.99.02,0,.04.13.04.34,0,.19.01.43.03.54.01.11.05.58.08,1.05.1,1.54.35,3.42.65,4.82ZM23.65,16.44c-.71.26-1.99.82-3.27,1.44-.39.19-.87.43-1.08.52-.45.22-1.23.63-2.13,1.15-.37.21-.68.37-.7.36-.04-.02.08-2.54.13-2.78.02-.11.1-.55.17-.98.16-.95.17-.97.27-1,.74-.23,2.03-.68,2.49-.86.74-.29,2.1-.85,2.33-.97.22-.1.19-.12.52.36h.02c.58.86,1.56,2.49,1.56,2.6,0,.03-.1.08-.31.16ZM31.06,14.16h0s-.3.08-.6.15c-1.59.39-3.87,1.03-4.08,1.14-.06.03-.22.09-.36.13-.15.04-.56.19-.93.33-.37.14-.69.26-.72.27-.03.01-.07,0-.09-.06-.05-.1-.54-1-.7-1.28-.12-.22-.95-1.49-1.08-1.66l-.06-.08.88-.46c.93-.48,1.64-.88,2.29-1.27.47-.29.4-.29,1.11.03.5.23,1.05.51,1.78.9.43.23.86.51,1.15.75.14.11.47.35.74.55.61.42.72.52.67.56ZM31.5,13.96c-.06-.04-.49-.36-.96-.7-.88-.64-1.31-.94-1.68-1.14-.45-.25-1.57-.85-1.97-1.03-.22-.11-.41-.2-.41-.2,0,0,.15-.1.34-.21s.45-.27.57-.35c.13-.1.24-.15.28-.15.03,0,.24.05.46.1.4.09.97.27,1.74.57.23.09.57.22.76.29.48.18.88.38,1.59.8.74.44,2.29,1.51,2.28,1.58,0,0-.23.06-.51.11h0c-.28.04-.93.15-1.44.24l-.94.17-.11-.08ZM35.44,19.72l-.17-.4c-.76-1.82-1.86-3.52-2.99-4.63-.19-.19-.34-.35-.32-.35.09-.05,2.46-.5,2.69-.51h.19l.36.31c.83.74,1.99,2.12,2.59,3.09.27.43.89,1.59.86,1.61,0,0-.2.05-.43.11h.01c-.53.13-1.67.45-2.16.61-.2.07-.43.13-.5.14l-.13.02ZM40.08,24.18c-.18.44-.26.57-.72,1.24-.55.79-1.11,1.49-1.66,2.05-.15.15-.29.31-.31.35-.07.12-.07.09-.09-.52-.04-1.37-.19-2.31-.65-4.21h-.01c-.29-1.2-.56-2.02-.97-2.93-.03-.07-.04-.13-.02-.15.08-.07,1.94-.58,2.62-.72.57-.12.53-.13.66.17.36.83.92,2.57,1.09,3.42.06.31.14.65.16.75l.05.18-.15.37ZM39.02,12.48c-.21-.21-.05-.36-.03-.36.03,0,.18.06.34.13.16.07.39.2.51.27l1.13,1.29c.07.25.17.45.33.66.31.41.31.43.3.84-.01.62.1,1.1.33,1.41.06.09.14.21.17.27.03.06.15.21.26.33.24.26.28.34.33.73.12.93.11,1.18-.04,1.91-.05.21-.09.45-.1.53-.02.12-.32.08-.33-.13-.03-.72-.18-1.72-.37-2.46-.61-2.41-1.45-4.01-2.83-5.42ZM45.18,29.31h0c-.17.29-.63.38-1.59.31-.57-.04-1.01-.16-1.78-.48-.24-.1-.56-.23-.72-.29l-.28-.11.04-.3c.02-.17.06-.48.08-.69.06-.5.12-1.65.1-2.03,0-.17-.03-.48-.04-.7-.07-.9-.08-.82.12-.66.15.11.4.2.57.19.12,0,.17.04.17.14,0,.04.03.2.07.36.12.49.49.88.91.94.27.04.78,0,1.03-.09.11-.04.21-.07.21-.07.03.06.37.65.52.9.6,1.06.85,2.13.59,2.58ZM43.61,25.5h.04c-.33.1-.72.1-.88.02-.23-.12-.49-.52-.53-.82v-.13l.24-.02c.3-.02.57-.14.79-.34.16-.15.17-.2.07-.26-.09-.06-.35-.02-.53.07-.47.25-1.07.2-1.43-.12l-.12-.11.07-.08c.5-.53,1.08-1.91,1.14-2.7,0-.14.01-.02.01.26,0,.65.04.8.32,1.08.21.22.34.26.31.1-.11-.55-.09-1.41.06-2.04.27-1.16.33-1.53.29-1.99l-.02-.19.07.07c.09.09.3.17.36.15.17-.07-.16-.63-.8-1.37-.36-.42-.41-.49-.58-.87-.22-.47-.26-.66-.25-1.03.02-.38.11-.59.3-.69.14-.07.19-.07.48,0,.56.13.51.09,1.42,1.07.88.94.97,1.06,1.13,1.39.43.92.51,1.9.25,3.15-.05.24-.11.52-.13.63-.05.26-.26.86-.46,1.28-.2.43-.21.54-.04.54.2,0,.38-.25.64-.88l.13-.31h.12c.15,0,.36.2.55.53l.12.22-.02.34-.02.34-.2.37c-.5.94-1.92,2.09-2.9,2.34Z" fill="#fff7e6"/>
    <path d="M21.14,28.31c.09,0,.17-.09.31-.34.03-.06.07-.11.08-.11,0,0,.19.07.4.16.69.3,1.63.56,2.33.65.51.07,1.8.05,2.16-.03.17-.04.42-.08.55-.1.74-.09,2.04-.62,2.68-1.09.09-.07.24-.17.34-.22.29-.17.57-.42,1.05-.91.95-.99,1.55-2.06,1.87-3.34.04-.15.07-.28.08-.28,0,0,.11.02.24.05.44.11.61.04.44-.17-.26-.33-1.27-.57-1.46-.35v-.03c-.15.15-.07.3.18.33.19.03.18,0,.09.41-.12.51-.55,1.51-.81,1.88-.07.09-.19.27-.28.4-.36.51-.76.92-1.42,1.42-.17.13-.38.29-.46.36-.53.41-2.2,1.04-2.76,1.04-.1,0-.37.03-.62.07-1.27.18-2.57.02-3.82-.45-.52-.2-.53-.21-.48-.37.08-.24.04-.42-.1-.42-.19,0-.78.95-.78,1.25,0,.1.1.19.19.19Z" fill="#fff7e6"/>
    <path d="M30.02,20.52l-.17.1h-.46c-.46,0-.47,0-.67-.09-.35-.16-.66-.43-.91-.76l-.07-.09-.08.08c-.1.1-.1.17,0,.46.2.55.55.86,1.2,1.07.26.08.81.07,1.08-.02.67-.22.98-.54,1.22-1.22q.1-.3.11-.77c0-.44,0-.47-.06-.55-.03-.04-.1-.15-.15-.22-.13-.22-.26-.28-.42-.2h.01c-.09.04-.1.1-.06.6.03.49.02.7-.08,1.05-.06.24-.19.39-.49.56Z" fill="#fff7e6"/>
    <path d="M23.16,23.94c.26-.09.66-.32.81-.48.15-.16.5-.94.57-1.29.07-.37.08-.85.01-.99-.08-.19-.26-.26-.4-.17-.11.07-.11.09-.15.57-.07.96-.48,1.55-1.2,1.72-.72.17-1.4-.06-2.13-.71-.25-.22-.32-.25-.42-.2-.11.06-.13.31-.04.47.1.17.48.57.66.69.17.12.51.28.8.4.26.11,1.16.1,1.49-.01Z" fill="#fff7e6"/>
  </g>
  <g>
    <path d="M26.21,48.16l-1.58-11.34c-.09-.56-.26-.73-.81-.88-.19-.05-.25-.14-.22-.31.03-.17.15-.26.31-.26.22,0,1.02.08,1.81.08.93,0,1.81-.08,2.04-.08.19,0,.25.11.22.28-.03.19-.14.26-.31.29-.88.14-1.15.34-1.07.98l1.12,9.05c.03.14.06.14.11.03l2.14-4.43c.09-.17.11-.32.09-.48l-.45-4.26c-.06-.56-.28-.74-.81-.88-.17-.05-.23-.14-.2-.31.03-.17.15-.26.29-.26.28,0,.85.08,1.98.08.82,0,1.66-.08,1.89-.08.19,0,.25.11.22.28-.02.14-.11.26-.28.29-.88.15-1.19.36-1.13.98l.79,8.82c.02.12.05.12.09-.02l3.52-8.61c.3-.74.02-1.02-.77-1.16-.19-.03-.25-.16-.22-.31.03-.17.16-.26.33-.26.15,0,.81.06,1.56.06s1.41-.08,1.55-.08c.17,0,.25.11.22.28s-.11.26-.29.31c-.77.2-1.21.34-1.52,1.05l-4.69,11.17c-.15.37-.39.53-.73.53s-.56-.15-.59-.53l-.56-5.25c-.02-.14-.05-.14-.11-.03l-2.6,5.28c-.19.37-.39.53-.74.53s-.56-.15-.6-.53v-.02Z" fill="#fff7e6"/>
    <path d="M36.25,42.05c.76-4.2,3.16-6.92,6.09-6.92s4.32,2.73,3.56,6.92c-.76,4.18-3.14,6.89-6.07,6.89s-4.34-2.71-3.58-6.89ZM43.89,42.05c.68-3.72.03-6.23-1.67-6.23s-3.28,2.51-3.97,6.23c-.67,3.7,0,6.2,1.72,6.2s3.25-2.49,3.92-6.2Z" fill="#fff7e6"/>
    <path d="M44.62,48.44c.01-.12.08-.22.26-.26.42-.09.96-.25,1.1-1.05l1.91-10.5c.08-.5-.39-.65-.74-.73-.23-.05-.25-.16-.23-.28.03-.11.11-.25.34-.25s.68.06,1.89.06c.93,0,1.74-.06,2.25-.06,2.14,0,3.28,1.35,2.91,3.42-.29,1.67-1.32,2.88-2.73,3.44.43.48.73,1.97.93,2.97.11.59.29,1.6.46,2.37.09.39.36.48.77.59.17.05.23.12.2.28-.01.15-.12.25-.29.25l-1.04-.03c-.37,0-.79.03-.91.03-.34,0-.53-.11-.59-.37-.15-.67-.43-2.39-.53-3.02-.31-2.29-.57-2.9-1.25-2.9-.46,0-.63.09-.71.48l-.77,4.24c-.14.81.34.96.73,1.05.17.05.2.14.17.26-.02.11-.09.25-.28.25-.17,0-.99-.09-1.81-.09s-1.67.09-1.84.09c-.19,0-.22-.14-.19-.25h-.01ZM52.27,38.89c.36-1.95-.2-2.9-1.61-2.9-.51,0-.82.15-.93.71l-.76,4.18c-.14.81.31.93.93.93,1.22,0,2.03-1.01,2.37-2.93h0Z" fill="#fff7e6"/>
    <path d="M53.73,48.44c.03-.12.09-.22.28-.26.42-.09.94-.25,1.1-1.05l1.84-10.19c.15-.82-.3-.94-.71-1.05-.19-.05-.22-.14-.19-.26.01-.11.09-.25.28-.25.17,0,.99.09,1.81.09s1.67-.09,1.84-.09c.19,0,.22.14.19.25-.02.12-.08.22-.26.26-.45.11-.94.23-1.1,1.05l-1.83,10.07c-.14.84.32,1.02,1.21,1.02,1.55,0,2.34-1.16,2.93-2.39.17-.33.23-.39.36-.39.14,0,.2.08.15.39l-.28,1.35c-.09.5-.11.81-.16,1.07-.09.48-.36.63-.85.63-.67,0-1.67-.06-2.93-.06-.51,0-1.12,0-1.64,0-.82,0-1.69.06-1.84.06-.19,0-.22-.14-.2-.25Z" fill="#fff7e6"/>
    <path d="M61.37,48.44c.03-.12.09-.23.33-.28.39-.08.91-.23,1.01-.73l1.95-10.81c.09-.5-.39-.65-.74-.73-.22-.05-.25-.16-.22-.28.01-.11.09-.25.32-.25.2,0,.91.06,1.94.06s1.97-.06,2.66-.06c3.08,0,4.45,2.46,3.67,6.68-.76,4.2-3.01,6.65-6.09,6.65-.65,0-1.53-.05-2.43-.05-1.02,0-1.78.05-2.15.05-.23,0-.26-.14-.25-.25ZM70.29,42.05c.71-3.98-.11-6.06-2.4-6.06-.79,0-1.29.2-1.46,1.1l-1.8,9.98c-.17.88.34,1.01,1.07,1.01,2.29,0,3.87-2.06,4.58-6.03h.01Z" fill="#fff7e6"/>
    <path d="M7.23,61.28c.03-.17.14-.3.32-.34.43-.09.91-.25,1.07-1.05l2.01-10.02c.11-.51-.06-.71-.67-.85-.19-.05-.28-.17-.25-.39.05-.22.19-.34.34-.34.25,0,.57.03,1.7.03.57,0,.93-.03,1.13-.03.34,0,.45.05.5.56l.79,7.75c.02.14.05.14.09.02l3.45-7.78c.22-.5.33-.54.62-.54.19,0,.65.03,1.29.03,1.16,0,1.55-.03,1.78-.03.2,0,.26.17.25.33-.03.17-.14.31-.34.36-.54.12-.99.29-1.08.9l-1.63,10.02c-.12.81.26.93.68,1.05.19.05.23.17.2.34s-.14.32-.33.32c-.26,0-.9-.09-2-.09s-1.72.09-1.95.09c-.19,0-.25-.15-.22-.32s.12-.3.33-.34c.43-.11.65-.25.77-1.05l1.19-7.33c.02-.14,0-.14-.05-.02-1.01,2.26-2.14,4.69-3.08,6.57-.37.74-.59,1.1-1.16,1.1s-.71-.36-.82-1.1c-.31-2.15-.56-4.4-.74-6.58-.02-.14-.03-.12-.06,0l-1.47,7.36c-.15.81.37.93.94,1.05.19.03.23.17.2.34s-.15.32-.34.32c-.23,0-.74-.09-1.58-.09s-1.46.09-1.69.09c-.19,0-.23-.15-.22-.32l.03-.02Z" fill="#fff7e6"/>
    <path d="M19.33,61.3c.03-.19.14-.31.34-.36.46-.11.91-.25.99-.74l1.91-10.5c.09-.5-.31-.63-.73-.74-.19-.05-.25-.17-.2-.36.02-.17.15-.31.34-.31.22,0,.94.09,2.14.09,1.08,0,1.86-.09,2.06-.09s.26.14.23.31c-.03.19-.14.31-.34.36-.46.11-.9.25-.99.74l-1.91,10.5c-.08.5.31.63.73.74.19.05.25.17.22.36-.03.17-.15.31-.34.31-.2,0-.94-.09-2.03-.09-1.21,0-1.97.09-2.18.09-.19,0-.26-.14-.23-.31h-.01Z" fill="#fff7e6"/>
    <path d="M23.4,61.28c.03-.2.2-.31.37-.34.76-.14,1.25-.26,1.64-.81l3.49-4.82c.09-.12.09-.25.06-.37l-1.77-5.08c-.2-.57-.48-.73-1.16-.91-.17-.05-.31-.16-.26-.37.03-.2.17-.29.34-.29.34,0,1.32.06,2.42.06,1.33,0,2.22-.06,2.57-.06.17,0,.29.11.26.29-.05.2-.19.33-.4.37-.84.2-.96.54-.76,1.1l.82,2.42c.05.14.11.14.19.03l1.77-2.57c.4-.57.25-.81-.48-1.01-.19-.05-.31-.14-.26-.36.03-.17.17-.28.31-.28.31,0,1.01.06,1.98.06.84,0,1.73-.06,2-.06.17,0,.26.11.23.28-.05.23-.2.32-.36.36-.93.2-1.3.33-1.8,1.04l-2.87,4.09c-.09.12-.09.25-.06.37l1.91,5.61c.22.63.81.77,1.49.91.23.05.32.16.29.36s-.17.31-.34.31c-.36,0-1.01-.05-2.42-.05-.85,0-2.45.05-2.91.05-.17,0-.26-.12-.23-.32s.17-.3.36-.33c.81-.15,1.07-.42.9-.93l-1.1-3.18c-.05-.12-.11-.12-.19-.01l-2.26,3.16c-.37.51-.26.81.67.94.2.03.28.16.25.34-.03.2-.19.32-.34.32-.29,0-1.33-.05-2.15-.05s-1.64.05-1.92.05c-.17,0-.29-.11-.26-.32h-.02Z" fill="#fff7e6"/>
    <path d="M35.86,61.28c.03-.17.14-.3.32-.34.42-.09.91-.25,1.02-.9l1.83-10.1c.08-.43-.06-.68-.51-.68-1.25,0-1.8.91-2.2,1.74-.16.33-.33.42-.48.42-.17,0-.26-.11-.23-.31l.22-1.12c.08-.43.12-.87.2-1.24.06-.34.25-.46.62-.46.68,0,2.14.19,3.92.19s3.42-.19,3.98-.19c.36,0,.51.12.45.46-.08.37-.19.81-.26,1.24l-.19,1.12c-.03.2-.14.31-.31.31-.15,0-.29-.09-.32-.42-.11-.82-.36-1.74-1.61-1.74-.45,0-.68.25-.76.68l-1.83,10.1c-.11.65.36.81.71.9.17.05.23.17.2.34s-.15.32-.34.32c-.2,0-.94-.09-2.08-.09s-1.94.09-2.12.09c-.2,0-.26-.14-.23-.32h0Z" fill="#fff7e6"/>
    <path d="M40.2,61.26c.03-.22.17-.33.36-.36.32-.06.79-.15,1.04-.68l5.27-11.36c.22-.48.57-.65,1.07-.65s.74.17.79.65l.85,11.22c.05.62.34.71.79.82.17.05.26.16.23.37-.05.23-.19.32-.34.32-.26,0-.79-.06-1.89-.06-1.18,0-2.09.06-2.36.06-.19,0-.28-.14-.25-.34s.17-.33.36-.36c.48-.09.88-.23.85-.84l-.15-2.87c-.02-.14-.09-.2-.23-.2h-2.08c-.14,0-.23.06-.29.19l-1.29,2.9c-.05.09-.08.19-.11.29-.05.3.15.4.73.51.19.03.26.17.22.37-.03.22-.19.34-.36.34-.23,0-.71-.06-1.55-.06s-1.25.06-1.46.06c-.14,0-.25-.12-.2-.34v.02ZM46.74,55.87l-.2-3.64c-.01-.14-.05-.14-.09-.01l-1.64,3.67c-.05.12,0,.19.14.19h1.61c.14,0,.2-.08.19-.2h-.01Z" fill="#fff7e6"/>
    <path d="M48.86,61.3c.03-.19.14-.31.34-.36.47-.11.9-.25.99-.74l1.89-10.43c.09-.54-.34-.73-.71-.81-.22-.05-.26-.19-.23-.37.03-.17.14-.31.37-.31.26,0,.9.06,2,.06s2.03-.06,2.56-.06c2.31,0,3.53,1.52,3.11,3.84-.46,2.59-2.15,4.28-4.31,4.28-.54,0-.9-.16-1.15-.34-.17-.12-.26-.06-.31.15l-.71,3.98c-.09.5.29.63.73.74.17.05.25.17.2.36-.03.17-.16.31-.34.31-.2,0-.95-.09-2.01-.09-1.21,0-1.97.09-2.18.09-.19,0-.26-.14-.23-.31h0ZM56.52,52.17c.39-2.08.05-3.04-1.08-3.04-.46,0-.74.12-.84.57l-.84,4.68c-.09.53-.02,1.08.79,1.08.98,0,1.55-.96,1.97-3.3h0Z" fill="#fff7e6"/>
    <path d="M57.01,61.28c.03-.17.14-.3.33-.34.42-.09.9-.25,1.02-.9l1.87-10.39c.09-.46-.28-.65-.64-.81-.26-.11-.34-.25-.31-.43.03-.19.22-.29.45-.26.19.05.5.16,1.19.19.9.03,2.06.02,2.7.02,1.12,0,2.29-.06,3.04-.06.36,0,.51.12.45.46-.06.37-.15.7-.23,1.13l-.19,1.15c-.03.17-.17.23-.29.23-.16,0-.28-.06-.34-.39-.2-.9-.68-1.69-2.05-1.69-.77,0-1.21.16-1.35.9l-.6,3.39c-.09.51-.06.6.57.6h.68c.82,0,1.27-.9,1.49-1.39.12-.26.23-.36.4-.36.14,0,.29.06.23.36-.05.25-.28,1.22-.39,1.83-.09.54-.2,1.44-.25,1.7-.05.23-.17.31-.33.31-.17,0-.28-.08-.31-.34-.05-.5-.19-1.22-1.02-1.22h-.67c-.64,0-.71.08-.81.6l-.73,4.04c-.15.82.17,1.1,1.16,1.1,1.47,0,2.11-.94,2.7-2.17.17-.32.28-.39.43-.39s.28.08.22.39l-.28,1.35-.15,1.07c-.09.48-.34.63-.85.63-.65,0-1.97-.05-3.22-.05h-1.58c-1.15,0-1.94.06-2.12.06-.2,0-.26-.14-.23-.32h.01Z" fill="#fff7e6"/>
  </g>
</svg>