<?xml version="1.0" encoding="UTF-8"?>
<svg id="Layer_1" xmlns="http://www.w3.org/2000/svg" version="1.1" viewBox="0 0 132.94 95.03">
  <!-- Generator: Adobe Illustrator 30.2.1, SVG Export Plug-In . SVG Version: 2.1.1 Build 1)  -->
  <ellipse cx="66.47" cy="47.52" rx="67.31" ry="46.29" transform="translate(-8.76 15.64) rotate(-12.6)" fill="#c7ff15"/>
  <g>
    <path d="M29.06,57.9c.02-.13-.01-1.41-.05-1.77-.08-.74-.1-2.44-.03-2.9.04-.26.09-.74.11-1.07.02-.33.06-.7.08-.83.03-.13.08-.46.12-.74.26-1.95.96-4.08,2.25-6.79.43-.9.47-1.19.13-1.01-.71.37-1.74,2.23-2.44,4.41-.89,2.73-1.24,5.3-1.06,7.64.05.72.39,2.85.47,3,.1.19.39.22.43.05Z" fill="#34162d"/>
    <path d="M27.09,54.49s.03-.51.02-1.03c-.05-2.24.2-4.05.88-6.39.19-.65.24-.87.2-.98-.26-.74-1.28,1.89-1.58,4.06-.22,1.61-.24,3.66-.03,4.24.1.29.39.34.52.09Z" fill="#34162d"/>
    <g>
      <path d="M105.89,20.93c-.04-.1-.19-.18-.18-.1,0,.02.06.08.11.12q.11.07.07-.02Z" fill="#34162d"/>
      <path d="M120.59,51.43s-.04-.17-.09-.16c-.03,0-.04.04-.04.08.01.09.09.14.13.09Z" fill="#34162d"/>
      <path d="M45.9,43.35c.42.24,1.79,1.33,2.11,1.69.68.74,1.4,1.75,1.61,2.23.07.15.15.27.18.27.04,0,.1.02.14.06.24.23.18-.53-.07-.86-.09-.12-.17-.26-.18-.32s-.11-.21-.22-.35c-.12-.14-.3-.39-.4-.54-.11-.16-.23-.31-.28-.35-.05-.04-.17-.2-.29-.34-.22-.29-1.08-1.01-1.53-1.29-.38-.23-1.38-.52-1.36-.39,0,.03.13.11.27.19Z" fill="#34162d"/>
      <path d="M78.24,13.56s-.01.05-.04.06c-.03,0-.04-.03-.03-.07.03-.09,0-.09-.26.03-.59.25-.36.38.24.14.21-.09.33-.23.17-.21-.05,0-.08.03-.08.06Z" fill="#34162d"/>
      <path d="M53.29,55.8c.06-.02.26-.09.45-.14.34-.09.55-.24.48-.32-.04-.06-.42,0-.59.09-.08.04-.13.1-.13.14,0,.06-.01.06-.1.03-.13-.05-.25.04-.23.17,0,.06.04.07.12.03Z" fill="#34162d"/>
      <path d="M46.18,21.48c-.03.1-.05.19-.04.19.04,0,.15-.33.13-.36-.02,0-.05.07-.09.17Z" fill="#34162d"/>
      <path d="M44.62,56.77c0,.06,0,.12.04.14.07.03.11-.14.04-.2-.04-.03-.06,0-.08.06Z" fill="#34162d"/>
      <path d="M55.46,55.25s.07-.03.07-.06c0-.03-.04-.05-.08-.04s-.07.03-.07.06c0,.03.04.05.08.04Z" fill="#34162d"/>
      <path d="M78.7,13.37s-.07.1-.05.11c.02.02.09-.02.15-.09.12-.13.05-.15-.09-.03Z" fill="#34162d"/>
      <path d="M43.87,33.55c.06,0,.08.02.06.11-.02.11.12.29.2.28.08,0,.14-1.24.13-2.53,0-.92.05-1.7.19-2.72.1-.75.1-.82-.02-.8-.06,0-.11-.02-.11-.05,0-.08.18-.32.26-.33.03,0,.11-.28.17-.61.12-.65.18-.88.31-1.29.05-.15.09-.33.1-.4,0-.07.05-.26.11-.41.05-.15.11-.4.12-.56.01-.16.05-.35.08-.43.03-.08.04-.17.02-.19-.05-.07.03-.32.1-.33.04,0,.1-.12.13-.26.03-.14.14-.48.23-.76.09-.28.15-.52.14-.52-.02-.01-.11.15-.21.36-.11.22-.19.41-.19.43s-.05.15-.12.29c-.3.62-.86,2.19-.98,2.76-.04.19-.11.43-.15.54-.09.23-.33,1.42-.47,2.34-.1.67-.14,1.07-.19,1.91-.02.26-.04.63-.05.84-.02.2-.02.56-.03.81,0,1.55,0,1.55.17,1.53Z" fill="#34162d"/>
      <path d="M87.1,48.92c.47-.41,1.36-1.59,1.67-2.21.34-.69.59-1.3.58-1.4-.02-.15.15-.47.26-.49.06,0,.31,0,.57.01.38.03.49.01.61-.05.33-.19-.01-.53-.62-.6-.37-.05-1.01-.24-1.16-.35-.08-.06-.17-.11-.2-.11-.03,0-.13-.04-.22-.1-.09-.06-.18-.11-.21-.1-.09.02-.21.17-.2.25.02.14.38.64.53.73.08.05.14.1.14.12.01.09-.59,1.26-.77,1.52-.08.11-.28.48-.46.81-.18.34-.38.66-.44.72-.07.05-.24.24-.38.4-.14.16-.29.33-.33.36-.08.06-.51.5-.56.57-.09.12-.41.39-.97.77-.13.09-.32.23-.43.31-.31.24-.59.4-.96.57-.19.08-.4.19-.46.24-.07.06-.12.08-.17.04-.18.08-.35.15-.5.21.01.04.02.07.01.07-.03.03-1.18.43-1.5.54-.39.11-.53.15-1.11.25-.22.04-.59.11-.81.16-.43.1-.69.13-1.76.22-1.24.1-1.97.11-2.51.04-.29-.04-.71-.08-.94-.09-.69-.03-2.28-.29-2.41-.39-.03-.02,0-.14.08-.27.16-.33.21-.85.09-1.14-.04-.08-.09-.1-.25-.08l-.22.02-.2.58c-.3.85-.48,1.08-1.45,1.86-.08.06-.13.14-.12.19,0,.04-.03.09-.06.11-.04.03-.07.09-.06.14s.05.09.09.09c.05,0,.08.04.09.1.01.1.03.1.18.06.23-.07,1.03-.65,1.3-.95.23-.25.23-.26.36-.17.66.4,3.67.9,4.95.82.21,0,.4-.01.43,0,.33.15,3.98-.45,4.73-.78.12-.06.39-.16.59-.23.2-.07.46-.17.56-.23.15-.08.2-.1.23-.06l.63-.33s.1-.06.18-.09c.15-.06.42-.22.6-.34.18-.12.61-.4.95-.61M89.27,44.94s-.02-.06,0-.11c.02-.1.13-.1.17-.01.03.05-.12.15-.17.12Z" fill="#34162d"/>
      <path d="M94.39,31.8s.07.04.11.1c.23.33.3.41.37.36.05-.04,0-.12-.22-.38-.31-.36-.37-.41-.41-.32-.03.06.09.25.15.24Z" fill="#34162d"/>
      <path d="M60.68,70.41s.02.08.06.13c.07.07.09.07.16,0,.05-.06.06-.1,0-.14-.08-.07-.19-.07-.22,0Z" fill="#34162d"/>
      <path d="M48.62,31.92c.08-.08.2-.17.27-.2.06-.03.25-.15.42-.27.32-.24.39-.37.13-.3-.09.03-.15.02-.16-.02,0-.07-.05-.06-.21.05-.08.05-.13.11-.13.14,0,.07-.22.39-.28.4-.03,0-.04-.03-.03-.07.03-.14-.08-.13-.23.02-.08.08-.19.16-.24.18-.05.03-.08.08-.06.13.04.14.34.11.52-.06ZM48.5,31.69s.08.01.08.04c0,.03-.03.06-.07.06s-.08-.02-.08-.04c0-.03.03-.06.07-.06Z" fill="#34162d"/>
      <path d="M36.3,44.47c-.01-.09-.09-.03-.13.1-.03.11-.03.13.03.13.07,0,.12-.12.11-.23Z" fill="#34162d"/>
      <path d="M94.03,31.17c-.18-.26-.34-.39-.39-.33-.07.09,0,.21.21.39.31.26.39.23.17-.06Z" fill="#34162d"/>
      <path d="M95.22,32.79c.09-.01.09-.11-.02-.22-.09-.1-.17-.09-.11,0,.02.04.04.11.05.15s.04.07.09.06Z" fill="#34162d"/>
      <path d="M46.92,33.04c.06.03.24-.13.19-.17-.02-.01-.05,0-.06.03-.01.03-.05.05-.07.04-.03-.01-.06,0-.07.03-.02.03,0,.06.02.08Z" fill="#34162d"/>
      <path d="M95.57,33.21s-.02-.08-.09-.16c-.18-.2-.17-.2-.17-.15,0,.07.21.32.26.31Z" fill="#34162d"/>
      <path d="M54.77,55.41c.23-.05.37-.11.37-.15.04-.13-.08-.15-.43-.04-.07.02-.16.06-.2.08-.04.02-.1.04-.14.04-.04,0-.06.03-.04.09.02.05.04.09.05.08.02,0,.19-.04.39-.09Z" fill="#34162d"/>
      <path d="M102.88,37.97c-.05.12,0,.24.15.33.07.04.08.02.09-.13.01-.32-.13-.44-.24-.2Z" fill="#34162d"/>
      <path d="M66.11,42.47c0,.06.05.15.1.21.05.06.15.22.23.37.14.26.39.53,1.16,1.24.51.48,1.91,1.24,2.53,1.38.13.03.4.1.59.15,1.21.31,2.25.19,3.07-.36.14-.1.32-.2.4-.22.17-.07.62-.57.88-.98.61-.98.54-3.07-.14-4.22-.07-.12-.19-.37-.26-.56-.09-.24-.18-.38-.29-.46-.09-.06-.22-.21-.28-.32-.07-.11-.14-.2-.17-.2-.03,0-.17-.1-.32-.22-.3-.25-.41-.27-.5-.08-.04.07-.06.15-.06.19s-.01.07-.03.07c-.09.01.03.83.16,1.04.07.11.15.28.18.37.03.09.11.29.18.44.19.39.37,1.28.39,1.91.03.85-.33,1.63-.81,1.8-.07.02-.28.12-.47.21-.4.19-.85.27-1.27.21-.15-.02-.42-.07-.61-.09-.51-.07-1.19-.31-1.47-.5-.13-.1-.34-.23-.47-.3-.68-.38-1.39-.89-1.68-1.22-.34-.38-.83-.78-.98-.79-.12-.01-.14,0-.15.15,0,.09-.04.15-.07.14-.08-.04-.03.24.07.4.05.07.1.18.11.25Z" fill="#34162d"/>
      <path d="M63.26,38.24l.14.49s.05.05.09.08c.19.16.42.18.5.04.03-.03.15-.36.28-.7.21-.55.34-.87.49-1.08.07-.27.18-.55.36-.81,0,0-.02,0-.02,0-.05-.03.63-1,.79-1.14.09-.07.27-.24.39-.36.13-.13.34-.31.47-.39.13-.08.32-.23.41-.31.09-.08.26-.18.36-.21.11-.03.3-.12.42-.21.13-.09.31-.17.39-.18.3-.04.55-.24.64-.51l.08-.25-.17-.35c-.34-.7-.64-.78-1.72-.46-.33.1-.99.43-1.19.6-.07.06-.19.15-.27.21-.08.05-.27.22-.42.37-.15.15-.37.37-.48.47-.11.11-.3.36-.41.56-.12.2-.25.43-.31.51-.06.08-.13.23-.17.33-.04.1-.16.38-.27.62-.11.24-.22.56-.24.7-.02.14-.07.38-.1.53-.06.25-.09.4-.13.49l.08.95Z" fill="#34162d"/>
      <path d="M116.19,57.83c.13-.06.31-.12.38-.12.08,0,.22-.1.34-.22.11-.11.27-.24.34-.3.22-.14.96-.94,1.02-1.09.24-.7.25-.82.18-1.39-.04-.31-.12-.73-.17-.94-.74-2.73-.8-2.89-1.4-3.74-.07-.1-.33-.58-.58-1.04-.25-.47-.51-.95-.59-1.07-.08-.12-.19-.31-.24-.44-.05-.12-.14-.28-.21-.35-.14-.16-1.01-1.46-1.18-1.76-.07-.12-.31-.52-.54-.88-.23-.37-.42-.67-.43-.69,0-.02-.08-.12-.18-.23-.09-.11-.3-.41-.47-.68-.16-.27-.33-.53-.38-.6-.05-.07-.2-.3-.34-.52-.15-.22-.28-.39-.31-.39-.06,0-.29-.37-.28-.45.02-.16-.4-.55-.57-.53-.06,0-.27-.18-.32-.29-.05-.1,0-.26.12-.44.04-.06.11-.2.15-.3.04-.1.1-.23.12-.27.11-.19.15-.67.1-1.27-.05-.75-.12-.93-.65-1.78-.12-.18-.88-.6-1.14-.62-.14,0-.15-.02-.14-.23,0-.11.04-.35.07-.52.03-.17.05-.37.04-.45-.02-.15.07-.87.12-.97.02-.03,0-.08-.04-.12-.04-.04-.06-.13-.06-.21,0-.08,0-.41,0-.75-.01-.32-.02-.66,0-.75,0-.12-.03-.18-.17-.3-.17-.13-.19-.18-.32-.71-.17-.69-.19-.75-.49-1.3-.13-.24-.25-.49-.26-.55-.04-.18-.29-.44-.75-.78l-.4-.3-.07-.51c-.07-.49-.2-.89-.41-1.3-.05-.11-.11-.24-.12-.28-.03-.2-.77-1.19-1.13-1.51-.24-.21-.96-.71-1.02-.7-.02,0-.09-.04-.16-.08-.25-.18-.33-.22-.65-.4-.18-.1-.48-.23-.68-.29-.32-.1-.37-.13-.46-.33-.06-.12-.17-.29-.25-.37-.08-.08-.15-.16-.15-.18-.01-.12-.71-.78-.96-.92-.17-.09-.44-.24-.6-.33-.16-.09-.4-.18-.53-.2-.13-.03-.42-.09-.63-.14-.3-.07-.46-.08-.66-.04-.19.04-.28.04-.3,0-.05-.08-.13-.07-.29.03-.09.06-.15.08-.24.05-.09-.03-.16-.01-.26.07-.07.06-.2.11-.28.12-.33.04-.59.21-1.05.68-.25.26-.49.52-.52.57-.07.1-.2.14-.2.06,0-.05-.08-.07-.32-.11-.04-.01-.19,0-.32,0-.14.01-.25,0-.25-.03-.02-.18-.6-.18-.81,0-.08.07-.14.08-.21.06-.12-.05-.18,0-.26.22-.07.2-.05.21-.7-.11-.23-.11-.48-.21-.57-.22-.09,0-.25-.06-.36-.12-.16-.08-.24-.09-.39-.05-.12.04-.19.04-.2,0,0-.03-.07-.03-.16,0-.13.04-.15.03-.13-.05.02-.08,0-.09-.12-.05-.1.03-.2.01-.38-.07-.21-.11-.25-.16-.33-.41-.15-.44-.25-.61-.38-.65-.11-.03-.25-.28-.31-.52-.01-.04-.14-.21-.29-.38-.15-.16-.43-.52-.63-.8-.2-.28-.49-.63-.65-.81-.34-.36-.34-.37-.15-.58.08-.09.19-.25.25-.35.05-.09.12-.18.16-.19.18-.02.04-.37-.3-.73-.08-.08-.15-.18-.15-.23-.02-.13-.43-.58-.57-.62-.07-.03-.13-.07-.14-.11s-.15-.18-.33-.31c-.18-.13-.35-.29-.38-.36-.03-.06-.09-.1-.14-.1-.04,0-.08-.04-.09-.09,0-.06-.07-.12-.14-.14-.08-.02-.18-.14-.27-.3-.15-.26-.75-.82-.86-.8-.03,0-.09-.07-.13-.15-.05-.09-.16-.22-.25-.3-.1-.07-.32-.28-.51-.45-.59-.58-1.02-.89-1.58-1.17-.3-.15-.72-.39-.92-.55-.56-.42-.96-.64-1.04-.56-.05.05-.14.02-.4-.11-.18-.09-.38-.17-.42-.16s-.1,0-.14-.03c-.03-.02-.39-.17-.81-.32-.42-.16-.9-.35-1.06-.44-.17-.08-.41-.19-.53-.24-.12-.05-.3-.13-.39-.19-.09-.06-.32-.14-.51-.18-.19-.04-.48-.14-.65-.21-.17-.07-.36-.14-.43-.15-.07-.01-.24-.06-.37-.11-.14-.05-.37-.1-.53-.11-.44-.03-2.62-.03-3.63,0-1.41.04-2,.06-2.55.04-.28,0-.53,0-.55.01-.01.01-.14.02-.27,0-.14,0-.55,0-.93.01-.38.01-.77.01-.86,0-.1-.02-.32-.02-.51,0-.18.02-.51.12-.6.19-.04.03-.42.03-.51.13-.16.2-.24.23-.59.25-.1,0-.23.06-.3.14-.07.07-.22.14-.32.15s-.22.05-.27.08c-.12.09-.62.32-.94.43-.15.05-.4.16-.54.23-.67.34-.77.38-1,.47-.13.05-.29.1-.35.12-.05.02-.15.06-.21.11-.09.07-.12.08-.16.02-.04-.05-.1-.02-.27.15-.23.23-.39.29-.35.15.02-.08-.06-.11-.09-.03-.01.06-.45.33-.54.34-.04,0-.2.09-.35.19-.16.1-.38.21-.51.25-.12.04-.27.11-.32.15-.06.04-.24.12-.41.17-.18.05-.39.14-.49.19-.1.06-.21.11-.25.13-.04.01-.15.05-.25.08-.09.03-.2.08-.22.11-.02.02-.1.04-.16.03-.08-.01-.11,0-.11.07,0,.05-.02.08-.05.09-.03,0-.03.02-.01.05.02.02,0,.05-.06.06-.06,0-.12.05-.16.1-.05.08-.06.08-.12.02-.12-.13-.79.14-.98.4-.04.06-.14.12-.2.12s-.14.04-.15.07c-.01.03-.08.06-.14.07s-.15.07-.2.13c-.1.14-.33.31-.4.28-.02-.01-.11.06-.2.15-.09.09-.21.18-.26.19-.06,0-.12.05-.13.09-.01.04-.11.11-.21.14-.24.07-.45.22-.48.32-.01.04-.07.08-.14.09s-.26.11-.42.23c-.78.56-1.05.73-1.1.72-.04,0-.14.07-.24.18-.1.1-.2.19-.23.17-.03-.02-.08,0-.11.05-.03.04-.19.17-.36.28-.17.11-.44.35-.59.52-.15.18-.29.33-.31.33-.05,0-.64.6-.9.91-.14.16-.32.36-.41.44-.09.08-.29.32-.45.53-.16.21-.49.62-.74.91-.25.29-.73.9-1.07,1.36-.64.87-.7.93-.72.8,0-.05-.03-.08-.06-.08-.09.01-.42.55-.54.9-.07.19-.27.62-.45.96-.17.33-.37.76-.43.95-.07.18-.16.41-.2.5-.05.09-.17.38-.25.64-.09.26-.2.51-.24.55-.04.04-.07.11-.07.14s-.05.21-.11.41-.16.53-.21.75c-.06.22-.19.7-.31,1.06-.12.37-.21.7-.2.74s-.05.28-.13.52c-.24.72-.43,1.85-.47,2.79-.02.21-.03.5-.05.63-.04.41-.03.47.15.41.12-.04.15-.03.16.04s-.02.09-.15.08c-.17-.02-.19.03-.17.42,0,.17.02.2.1.19.12-.03.13.17.01.22-.09.04-.09.34,0,.33.02,0,.04.12.05.26.02.86.05,1.36.07,1.39.01.01,0,.05-.02.07-.06.05-.02.36.05.48.2.28.31.54.31.67,0,.3.31.4,1.02.33.24-.02.24-.02.25.14.01.24-.07.33-.25.23-.07-.04-.14-.09-.14-.12-.01-.1-.2,0-.48.28-.17.16-.36.32-.43.37-.07.04-.29.28-.49.53-.21.25-.4.46-.42.46-.03,0-.1.11-.16.23-.06.12-.15.23-.18.23s-.12.1-.18.2c-.06.11-.25.38-.43.61-.32.42-.98,1.42-1.29,1.94-.09.16-.39.67-.66,1.14-.5.86-.76,1.37-.96,1.92-.06.16-.16.4-.22.52-.06.12-.12.27-.14.34-.02.06-.22.61-.43,1.22-.22.61-.41,1.24-.43,1.4-.03.17-.07.39-.1.49-.03.1-.06.31-.07.46,0,.15-.05.43-.1.62-.16.71-.26,1.57-.27,2.43,0,.28-.02.53-.04.56-.1.22-.11.68-.01,1.01.07.23.11.55.14.99.04.76.08,1.02.25,1.56.07.22.12.47.12.54,0,.08.05.25.1.38.06.13.14.37.18.53.08.28.19.62.51,1.44.07.19.19.39.25.44.06.05.1.13.09.18-.03.11.65,1.52.94,1.95.13.2.33.51.45.69.12.18.27.36.34.39.09.04.14.11.15.21.01.1.06.16.18.22.16.07.22.14.12.16-.03,0,0,.08.06.17.06.09.13.17.16.16.12-.01.27.16.25.3,0,.09.02.15.11.21.07.04.16.14.2.21.05.08.11.13.16.13.04,0,.08.02.08.04,0,.03.07.07.14.09.08.02.14.07.15.13,0,.05.05.11.1.12.05,0,.07.06.07.11-.02.12.08.22.27.28.26.08.26-.07,0-.32-.25-.25-.18-.27.11-.03.14.11.31.23.38.26.2.1.16.35-.07.31-.18-.03-.2.01-.03.16.06.06.12.14.13.18,0,.04.03.06.05.06.06,0,.37.48.39.61,0,.06.06.15.11.21.06.07.2.24.3.39l.19.28-.3.58c-.16.32-.35.71-.43.87-.07.16-.25.46-.41.68-.15.22-.37.56-.47.78-.1.21-.25.49-.33.62-.2.3-.39.66-.69,1.28-.31.62-.77,1.51-1.08,2.1-.22.4-.81,1.66-1.11,2.36-.44,1.02-.57,1.34-.76,1.89-.11.34-.3.95-.41,1.36-.11.41-.23.86-.26.99-.09.31-.36,2.15-.34,2.32,0,.07-.02.21-.05.32-.19.47,0,1.82.26,1.99.05.03.23.22.4.41.38.44.69.72,1.4,1.29.85.67,1.38.83,2.5.76.64-.04.87-.11,1.38-.42.38-.23.53-.26.55-.11.02.16.18.11.9-.29.95-.53,1.38-.8,1.78-1.12.19-.16.46-.37.59-.46.13-.09.52-.4.85-.69.34-.29.78-.68.99-.87.63-.55,1.64-1.53,2.63-2.55.27-.28.62-.6.76-.72.33-.25,1.84-1.73,2.35-2.29.2-.23.46-.5.58-.62.12-.11.45-.54.74-.94.29-.4.67-.89.84-1.08.39-.43,1.8-2.3,2.06-2.74.1-.17.29-.43.42-.57l.23-.26.16.09c.18.1.52.18.86.19.13,0,.29.04.36.07s.17.05.24.03c.18-.04.57,0,.71.06.07.03.15.04.17.02.02-.02.08-.03.12,0,.07.04.55.08,1.07.09.18,0,.43.03.57.06.13.03.26.04.29.02.02-.02.07-.02.11,0,.08.04.48.06,1.51.09.4.01.81.03.92.05.11.01.42.03.69.02.27,0,.7,0,.95,0,.26,0,.72-.02,1.03-.03.31-.02.81-.04,1.11-.04.3,0,.67-.02.83-.03.15-.01.25,0,.34.09h2.22s3.71-.85,3.71-.85l3.94-.63c.29-.05.58-.11.77-.14.69-.12,1.53-.31,1.69-.39.07-.03.29-.11.5-.16.37-.1.79-.25,1.52-.55.2-.08.43-.16.5-.16.08,0,.23-.08.32-.17.17-.15,1.57-.68,1.64-.63l7.15-3.93c.25-.3.32-.36.45-.38l.27-.22c.08-.1.2-.2.27-.22.07-.02.22-.14.33-.26.11-.12.22-.2.25-.19.08.04.28-.15.34-.32.03-.08.09-.15.16-.16.17-.03.41-.24.89-.76.24-.27.44-.47.45-.46,0,.03.28-.24.58-.58.12-.13.17-.22.14-.28-.04-.1.1-.2.17-.12.07.09.19-.03.85-.92.64-.86,1.02-1.42,1.39-2.05.1-.17.25-.4.33-.51.08-.11.18-.26.21-.35.06-.16.4-.83.63-1.25.08-.13.13-.28.13-.32,0-.04.09-.3.21-.58.12-.27.22-.53.22-.57,0-.04.03-.12.08-.18.05-.07.08-.18.07-.29-.01-.1,0-.2.03-.22.02-.02.06-.14.08-.26.02-.12.06-.25.09-.28.04-.03.1-.18.13-.33.09-.34.33-1.18.36-1.2.04-.05.34.09,3.31,1.56,1.2.59,2.27,1.03,2.93,1.2.15.04.61.19,1.02.33,1.03.36,1.61.53,1.7.52.04,0,.28.06.53.14.25.08.63.18.83.23.21.05.7.17,1.1.26.41.1.88.19,1.06.22.18.02.44.06.57.08.13.03.34.05.47.05.13,0,.39.04.58.06.43.08,1.29-.02,1.66-.18ZM38.81,33.61c-.07-.05-.04-.17.04-.18.03,0,.06.02.09.05.06.08-.04.19-.12.13ZM106.28,28.12c.14.15.36.41.49.56.14.15.32.43.41.62.09.19.23.43.32.55.09.11.16.23.17.27s.07.15.14.26c.08.13.14.3.17.52.05.37.12.64.18.59.02-.02.05-.01.07.02.02.02,0,.05-.05.06-.06,0-.07.03-.03.12.07.15.16,1.07.18,1.73.02.77.02.83-.05,1.02-.04.09-.06.21-.05.28s0,.13-.03.15c-.1.08-.18.42-.11.5.08.09-.03.53-.2.88-.06.12-.11.24-.11.27s-.02.14-.06.25c-.04.1-.06.22-.05.25.02.03-.01.14-.07.24s-.12.26-.15.37c-.03.1-.12.3-.22.44-.37.57-.55.9-.52.94.02.02.02.1,0,.16-.06.14.06.13.21-.02.06-.06.21-.18.33-.27.34-.25.96-1.34,1.27-2.23.13-.38.14-.38.32-.39.1,0,.25.03.34.08.19.1.56.67.68,1.05.05.14.13.35.19.45.16.28.07.95-.21,1.49-.24.47-1.17,1.66-1.56,1.99-.15.13-.33.3-.39.37-.14.16-.66.62-.71.63-.02,0-.18.09-.34.2-.6.38-1.05.55-1.8.66-.19.03-.42.07-.51.1-.33.11-.81,0-1.22-.29-.32-.23-.8-.75-.82-.9,0-.02.24-.07.55-.1.67-.08.98-.22,1.48-.67.3-.26.35-.33.35-.48,0-.24-.11-.24-.57-.01-.31.15-.4.18-.44.13-.05-.06-.18-.05-1.24.1-.44.06-.51.06-.67-.03-.1-.06-.28-.1-.41-.1-.16,0-.27-.04-.42-.14-.1-.08-.24-.15-.31-.16-.11-.02-.1-.05.2-.49.45-.65.55-.84.56-1.04,0-.1.05-.29.1-.42.05-.14.19-.65.32-1.15.13-.49.24-.93.26-.96.04-.08.12.15.17.47.03.17.06.25.13.28.07.03.07.06.04.08-.11.06-.05.21.13.31.19.11.28.07.22-.09-.02-.06-.02-.2.01-.31.03-.12.03-.36,0-.6-.05-.45-.01-.96.09-1.1.04-.05.09-.27.12-.47.03-.21.1-.57.15-.82.09-.5.11-.84.09-1.38-.02-.45.02-.5.21-.3.13.13.51.28.67.27.01,0-.06-.12-.15-.26-.09-.13-.22-.32-.27-.41-.13-.21-.57-.59-.71-.62-.07-.01-.14.01-.19.07-.05.05-.1.09-.12.1-.05,0-.35-.49-.33-.52,0-.02.2.04.42.11.22.08.43.13.47.13.04,0,.17.02.29.05.12.03.34.06.49.06s.33.05.39.09c.08.06.12.06.13.01.01-.03.05-.07.09-.07s.07-.06.06-.12q-.01-.11.07-.02c.07.07.1.07.14.02.09-.12-.01-.2-.32-.24-.28-.03-1.31-.3-1.72-.44-.09-.04-.31-.16-.47-.27-.16-.11-.39-.25-.5-.31-.34-.18-1.13-.88-1.33-1.2-.2-.3-.47-1.07-.44-1.21.02-.04-.01-.16-.06-.27-.15-.34-.07-.79.19-1.13.21-.26.23-.27.51-.31.2-.02.32-.01.37.03.04.04.15.06.23.05.29-.03,1.29.14,1.83.32.29.09.54.17.57.16.05,0,.46.2.52.25.02.01.26.14.53.28.28.14.55.3.61.36.06.05.18.12.26.16.08.03.26.18.39.34ZM103.69,23.83s.14.16.32.29c.37.3.95,1.08,1.3,1.72.27.49.44.92.39.98-.01.02-.21-.06-.45-.17-.23-.11-.61-.29-.84-.4-.23-.11-.59-.24-.8-.29-.21-.05-.43-.11-.49-.14-.07-.03-.33-.08-.59-.12-.27-.03-.53-.09-.59-.13-.22-.16-1.4.11-1.65.38-.08.09-.41.08-.75-.02-.21-.06-.3-.13-.54-.41-.16-.19-.33-.38-.39-.43-.25-.23-.52-1.17-.4-1.42.27-.59.76-.86,1.78-1,.43-.06.57-.05.98.03.26.05.51.09.55.09.23-.03,2.15.89,2.17,1.04ZM95.94,21.72c.1-.26.5-.68.78-.81.2-.09,1.12-.22,1.49-.21.53.02,1.19.19,1.44.37.12.09.31.2.42.23.28.11.94.72.87.81-.03.04-.73.12-1.34.16-.67.04-1.06.18-1.24.44-.04.06-.14.12-.21.13-.09.01-.18.09-.27.22l-.14.21-.18-.16c-.1-.09-.24-.23-.32-.32-.3-.35-1.12-.95-1.26-.93-.06,0-.06-.02-.01-.14ZM94.54,48.53c-.65.76-2.27,2.16-4.14,3.61-1.33,1.02-5.71,3.86-5.81,3.77,0,0-.2-.43-.65-.38-.04,0-.06.02-.08.03.03.14.06.26.07.35l.06.38-.51.27c-.28.14-.77.41-1.1.57-.32.17-.81.41-1.07.54-.27.13-.55.26-.64.31-.51.26-1.81.86-2.06.95-.16.06-.74.28-1.29.5-1.05.42-1.32.52-2.57.99-1.22.45-1.45.53-2.01.71-.29.09-.69.22-.89.29l-.36.13-.12-.11c-.14-.13-.45-.51-1.21-1.47-.54-.69-2.7-3.87-2.82-4.14-.03-.06-.15-.29-.28-.5-.12-.21-.27-.46-.32-.55-.05-.08-.12-.15-.17-.15-.06,0-.07-.03-.06-.14,0-.1-.03-.19-.14-.31-.08-.09-.17-.25-.2-.36-.03-.1-.11-.27-.16-.36-.05-.09-.12-.21-.15-.27-.03-.05-.1-.18-.16-.29-.24-.42-.53-1.06-.5-1.11.02-.02.3-.16.61-.3.58-.26.88-.38,2.57-1.05.11-.04.22-.09.34-.13-.05-.12-.21-.19-.44-.22-.31.13-.63.25-.95.38-.24.1-.53.22-.63.28-.2.12-1.48.64-1.64.67-.06,0-.11-.02-.13-.08-.02-.05-.16-.39-.31-.74-.56-1.28-.65-1.49-.66-1.58,0-.06-.07-.21-.14-.34-.18-.34-.72-1.84-1.07-3-.08-.26-.19-.58-.25-.72-.05-.13-.09-.26-.08-.29.01-.03-.03-.19-.1-.36-.27-.75-.66-2.27-.82-3.28-.04-.22-.13-.77-.2-1.22-.11-.67-.13-.83-.08-.88.07-.06.46-.29.93-.54.15-.16.32-.39.26-.54-.16.1-.34.21-.51.31-.36.22-.68.41-.72.43-.08.05-.28-1.84-.28-2.72,0-.26-.01-.71-.02-1.01-.02-.95.11-3.27.19-3.39,0-.01.26-.1.57-.21.3-.1.57-.2.59-.22.02-.02.47-.18.99-.36.52-.18,1.14-.4,1.38-.51.24-.1.66-.28.95-.4.99-.39,2.15-.88,2.77-1.16.34-.16.64-.29.67-.29.03,0,.27.21.53.46.27.26.64.66.85.9,0,0,0,0,0,0,.23.14.52.24.47-.21,0-.02,0-.03,0-.05-.23-.25-.47-.52-.69-.74-.32-.32-.59-.61-.59-.64,0-.03.11-.1.26-.15.14-.05.34-.14.43-.19.09-.05.4-.21.68-.35,1.11-.55,1.9-.98,2.34-1.25.25-.15.51-.3.58-.33.07-.02.23-.13.36-.23.13-.1.4-.29.6-.42.2-.13.36-.25.37-.25,0,0,.21.04.45.1,1.02.24,3.43,1.07,4.24,1.46.33.16.84.41,1.13.55.87.42,2.23,1.23,2.67,1.58l1,.75c.08.03.16.08.29.18.95.66,2.8,2.46,3.95,3.83.53.63,1.97,2.73,2.42,3.52.14.25.41.77.59,1.15l.33.69-.82.55c-.45.3-.96.63-1.14.74-.39.23-.49.37-.12.17.5-.28,2.11-1.03,2.19-1.03.1,0,.35.61.84,2.04.79,2.3,1.04,3.34,1.4,5.88l.18,1.26-.22.25ZM94.87,49.5c.01.25.02.71.02,1.02,0,.31.01.69.03.83s.02.34,0,.44c-.02.1-.04.49-.06.86-.01.37-.04.84-.07,1.05-.03.2-.08.63-.12.95-.1.97-.18,1.55-.33,2.26-.13.62-.15.69-.29.77-.08.05-.29.22-.47.39-.55.52-1.09.97-1.45,1.2-.19.13-.42.3-.53.39-.11.09-.32.25-.48.36-.16.11-.58.4-.93.65-.67.47-3.36,2.17-3.92,2.47-.33.19-.31.24-.46-.94-.13-1.1-.35-2.42-.56-3.41-.3-1.44-.37-1.71-.45-1.96q-.11-.32.18-.47c.13-.07.57-.34.98-.6.41-.26.84-.53.96-.6.12-.07.6-.38,1.05-.7,1.05-.72,1.74-1.2,2.18-1.5.19-.13.49-.36.68-.52.19-.16.38-.31.43-.33.16-.08,2.56-2.15,3.26-2.81.13-.12.25-.23.27-.23.03,0,.06.2.06.44ZM46.17,72.17c.04-.08.1-.15.14-.16.03,0,.14-.13.26-.29l.2-.28.96-.13c.53-.07.97-.15.98-.17.05-.1.21-.05.56.15.2.12.39.21.43.21.12-.01.07.09-.28.51-.32.39-1.03,1.09-1.75,1.74-.15.13-.38.35-.51.48-.13.14-.37.36-.53.5-.15.14-.3.28-.31.32-.05.12-1.45,1.31-1.85,1.57-.2.13-.39.28-.43.32-.04.05-.08.08-.1.09s-.19.13-.39.28c-.19.15-.36.26-.36.26,0-.01.07-.18.16-.38.09-.2.16-.38.16-.4,0-.03.1-.24.23-.47s.23-.45.23-.48c0-.06.23-.61.41-.93.15-.28.7-1.12,1.09-1.66.57-.8.65-.9.72-1.06ZM45.31,71.25s.12.01.16.03c.07.04.07.04,0,.05-.04,0-.12-.01-.16-.03-.07-.04-.07-.04,0-.05ZM49.1,70.17c-.17.05-.51.17-.76.25-.53.19-.75.22-1.4.2-.27,0-.53-.01-.57-.01-.23.01-1.04-.07-1.11-.11-.04-.03-.23-.08-.42-.11-.86-.16-2.23-.57-2.33-.71-.02-.02-.23-.15-.47-.27-.44-.24-1.06-.74-1.36-1.11-.19-.23-.29-.5-.4-1.12-.04-.22-.1-.51-.14-.63-.09-.29-.16-1.42-.1-1.52.08-.12.18-.11.28.03.11.17.91.81,1.09.88.07.03.29.14.48.25.4.24.44.25.42.06l-.02-.14.25.19c.13.1.28.18.33.18.04,0,.11.02.15.06.04.04.11.06.14.06s.15.03.25.07c.3.13.76.02.48-.12-.07-.04-.25-.15-.39-.26-.14-.11-.43-.31-.64-.44-.21-.13-.61-.41-.89-.62-.28-.21-.58-.4-.68-.43-.22-.07-.42-.23-.48-.41-.07-.21-.24-.44-.47-.65-.12-.11-.22-.21-.22-.23s-.13-.18-.29-.36c-.15-.19-.34-.45-.41-.59-.07-.13-.18-.29-.24-.36-.78-.86-1.84-3.58-2.04-5.23-.03-.23-.07-.37-.11-.38-.05,0-.07-.23-.12-.94-.06-1.01.02-1.8.29-2.65.07-.22.14-.54.17-.69s.11-.42.18-.57c.08-.15.22-.45.3-.65.32-.72,1.28-2.23,1.64-2.58.42-.4,1.5-1.13,1.64-1.1.08.02.06.06-.11.29-.18.23-.52.86-1.18,2.17-.23.46-.29.73-.2.95.07.16.07.27-.02.82-.16,1-.09,2.19.17,2.92.06.16.05.24-.02.44-.11.29-.3,1.18-.29,1.3,0,.05-.02.18-.07.3-.08.23-.08.42,0,.41.03,0,.11-.21.2-.45.08-.25.22-.55.31-.67.09-.12.18-.3.21-.39.04-.13.07-.17.15-.16.1.01.1-.01,0-.51-.11-.63-.16-1.78-.1-2.47.11-1.47.96-3.68,1.8-4.68.14-.17.37-.44.51-.6.14-.17.35-.36.46-.43.12-.07.27-.19.35-.28.12-.14.63-.42.96-.54.09-.03.13-.08.12-.14-.03-.26.56-.35,1.09-.17.79.27,1.4,1.01,1.69,2.04.13.47.13.47-.2.69-.29.2-.99.9-1.42,1.43-.39.49-.43.56-.69,1.3-.3.83-.46,1.46-.52,1.92-.1.94-.13,1.47-.08,1.71.01.07,0,.33-.05.58-.04.25-.06.55-.05.66.02.15-.01.27-.14.48-.15.25-.22.51-.31,1.09,0,.06,0,.12.03.14.07.03.46-.42.65-.75.11-.2.19-.29.25-.28.18.05.21-.09.14-.9-.06-.83-.04-1.65.08-1.95.03-.1.09-.3.11-.45.04-.27.29-1.14.46-1.69.28-.84.87-1.75,1.46-2.22.12-.09.36-.3.55-.46.53-.45.81-.59,1.37-.66s.79.02,1.16.44c.41.46.76,1.97.66,2.84-.02.13-.05.4-.07.6-.02.2-.1.53-.17.73-.07.2-.17.49-.21.65-.04.15-.13.42-.21.59-.07.16-.14.36-.15.43-.06.4-.13.6-.26.68-.07.05-.14.15-.15.21-.01.07-.05.21-.08.31-.03.1-.05.35-.03.55.02.27,0,.43-.07.65-.05.16-.08.34-.06.39.02.05.02.09-.01.1s-.05.04-.05.08c.01.12.09.08.17-.07.14-.28.23-.13.16.27-.03.17-.01.23.08.4.16.26.21.23.17-.07-.02-.14,0-.27.02-.29.03-.02.05.01.06.09.02.2.27.65.55,1.02.31.39.55.81,1,1.68l.32.61.1.84c.13,1,.16,1.56.1,1.66-.03.04-.03.19-.02.33.07.73-.26,1.65-.78,2.14-.13.13-.3.31-.37.4-.07.1-.19.19-.27.22-.08.03-.22.13-.32.22-.12.11-.29.2-.54.27-.55.15-.56.16-.56.06,0-.06-.05-.09-.14-.1-.43-.04-.65-.06-.89-.13-.61-.15-.75-.08-.24.13.16.07.32.14.34.17.05.07-.15.07-.36.01-.4-.11-.44.05-.07.25.33.17.67.21,1.35.15,1.17-.12,1.2-.12,1.49-.34.15-.11.29-.2.33-.2.08,0,.11.57.05.96-.02.15-.03.28-.01.3.13.1-.36.95-.63,1.07-.06.02-.16.1-.23.18-.17.18-.58.4-.95.51ZM41.81,40.46c-.2-.57-.24-.71-.28-1.18-.02-.3-.08-.71-.12-.92-.11-.56-.1-.66.16-.83.12-.08.24-.18.26-.22.06-.11,1.56-1.05,1.7-1.07.02,0,.09.51.15,1.13.19,1.87.57,3.37,1.14,4.49.17.33.51.69.65.67.07,0,0-.34-.1-.56-.1-.2-.23-.6-.29-.87-.03-.14-.09-.35-.13-.48-.1-.3-.28-1.07-.26-1.12.01-.02-.05-.28-.14-.58-.16-.56-.47-2.74-.41-2.93.02-.1.17-.09.57.04.16.05.12-.08.55,2.24.17.95.27,1.33.42,1.73.11.28.2.56.21.63.02.16.5.88.77,1.17.13.13.37.31.53.39.17.08.38.23.47.34.24.27.39.37.76.5.51.19,1.29.68,1.42.91.06.11.2.3.31.43.11.13.25.33.31.45.12.26.75,1.28.86,1.42.11.13.33.74.38,1,.04.25-.05.41-.31.53-.1.04-.29.16-.42.26-.28.21-.25.21-.75-.1-.64-.4-.78-.44-1.34-.37-.27.03-.55.08-.63.12-.08.03-.2.08-.27.11l-.12.04-.07-.55c-.06-.52-.08-.56-.27-.84-.52-.72-1.41-1.4-2.05-1.54-.37-.08-.58-.04-1.04.19-.22.11-.48.21-.58.23-.12.01-.27.09-.44.23-.14.12-.3.22-.36.22-.11.01-.57.34-.65.47-.03.05-.12.09-.19.1s-.24.06-.35.12c-.11.06-.3.11-.4.13-.26.03-.26-.04-.11-.71.23-1,.3-1.24.45-1.49.08-.14.18-.38.22-.54.04-.16.1-.39.15-.5.2-.55.06-1.89-.31-2.89ZM46.78,34.64c-.09-.22-.06-.26.22-.39.23-.12.58-.11,1.14.01.4.09.48.08,1.21,0,.42-.06.78-.09.78-.08,0,.01-.28.45-.62.97-.35.52-.81,1.25-1.03,1.62-.22.36-.43.7-.46.76-.03.05-.24.17-.47.27-.36.16-1.11.68-1.25.86-.03.03-.06.06-.08.07-.07,0-.19-.3-.17-.42,0-.07-.04-.36-.1-.64-.06-.29-.16-.75-.21-1.04-.09-.51-.09-.52.01-.53.06,0,.22-.15.36-.32.14-.17.33-.34.4-.38.23-.11.36-.48.26-.73ZM46.93,29.6c.07-.64.09-.99.08-1.16,0-.07.02-.17.05-.22.1-.15.19-1.22.12-1.31-.04-.06-.05-.09-.01-.12.02-.02.03-.08,0-.13-.06-.14.16-.89.73-2.47.17-.47.34-.92.4-1.01.05-.09.14-.29.2-.44.05-.15.19-.42.29-.6.11-.18.2-.35.19-.37,0-.02.11-.19.24-.39.13-.2.24-.39.23-.43-.01-.1.59-.85.79-.99.12-.08.29-.27.42-.5.26-.43.61-.77.8-.8.08,0,.15-.04.16-.07.01-.03.07-.06.12-.07s.11-.07.13-.15c.05-.16.36-.43.54-.48.07-.01.17-.07.21-.11.05-.05.21-.16.37-.25s.3-.19.32-.23c.04-.1.31-.27.47-.28.08,0,.19-.07.26-.14.07-.07.16-.11.22-.1.06.01.15-.03.22-.1.06-.06.14-.12.17-.12.08,0,.53-.32.56-.38.01-.03.07-.05.12-.06.11-.01.12-.07.02-.15-.11-.09.04-.19.16-.1.12.09.25.06.33-.07.08-.12.2-.16.21-.08.01.09.13.04.27-.13.1-.12.19-.16.38-.19.15-.02.27-.07.33-.13.05-.06.12-.09.15-.08.12.05.73-.32.8-.49.03-.09.09-.16.15-.17s.3-.09.56-.19c.26-.1.57-.21.7-.24.45-.12,1.18-.34,1.48-.45.37-.13,1.01-.28,2.23-.5.49-.09,1.03-.2,1.21-.25.18-.05.42-.09.53-.09.11,0,.74-.05,1.38-.12.76-.07,1.28-.1,1.47-.08.16.02.34.03.41.02.07,0,.33,0,.57,0,.24.01.68.03.97.04.59.02,1.29.13,1.69.26.15.05.46.11.7.14.53.07,1.45.33,1.86.52.17.08.42.19.57.24.15.05.42.16.62.23.19.06.47.2.62.28.16.08.38.2.51.25.23.1.75.44,1.26.83.14.11.31.22.38.25.07.04.13.11.14.18.01.07.15.2.37.35.58.4.86.63,1.17.95.17.17.39.39.51.48.12.1.29.29.39.42.1.13.33.34.5.47.18.12.33.27.34.32.01.05.2.22.43.39l.42.31.32-.07c.18-.04.44-.12.57-.18.14-.06.29-.11.34-.11.16.01.96.96,1.65,1.97.81,1.18.81,1.17.69,1.33-.05.07-.09.15-.09.18,0,.03-.06.13-.13.22-.08.09-.17.27-.21.39-.05.16-.11.24-.2.27-.13.04-.5,0-.58-.06-.02-.02-.08-.03-.13-.02s-.13-.02-.17-.05c-.08-.06-.39-.12-.81-.15-.14-.01-.3-.05-.35-.08-.08-.06-.51-.13-1.46-.26-.23-.03-.51-.07-.61-.09-.1-.01-.35-.03-.55-.03-.2,0-.47-.03-.6-.05-.13-.03-.28-.04-.33-.04s-.14-.02-.2-.07c-.1-.08-.59-.15-.85-.11-.07,0-.26,0-.42-.03-.82-.13-1.11-.15-1.83-.1-.8.05-1.34.04-1.5,0-.05,0-.1,0-.11.02-.02.05-.53.11-.58.07-.03-.02-1.13.12-4.1.54-.74.1-1.49.23-1.67.29-.18.05-.44.12-.58.15-.14.03-.67.16-1.18.3s-1.21.31-1.56.4c-.35.08-.76.21-.93.27-.16.07-.47.16-.67.21-.21.05-.52.15-.7.23-.18.08-.37.15-.45.16s-.35.1-.62.2c-.27.1-.69.24-.92.32-.24.07-.62.22-.86.32-.24.1-.52.2-.62.22-.1.02-.25.07-.33.11-.08.05-.22.08-.31.08-.12,0-.22.04-.35.13-.11.09-.28.16-.43.19-.14.02-.27.05-.29.05-.02,0-.04.05-.03.09,0,.06-.03.08-.12.06-.07,0-.2.04-.31.09-.1.06-.24.11-.3.12s-.14.05-.17.1-.11.09-.17.1c-.2.02-.4.15-.31.19.06.03,0,.05-.18.07-.14.02-.28.05-.29.09-.01.03-.1.06-.18.07s-.25.07-.36.14c-.11.07-.29.15-.4.2-.53.21-1.62.78-1.68.88-.04.06-.13.12-.2.13s-.27.1-.45.19l-.32.18.05.22c.05.2.04.22-.1.32-.08.06-.15.08-.15.06s.02-.06.05-.07c.04-.02.04-.05-.02-.12-.1-.13-.32-.19-.42-.13-.05.03-.22.15-.39.25-.17.1-.35.24-.4.31-.06.09-.12.11-.24.1-.14,0-.16,0-.11.08.06.14-.26.4-.34.28-.05-.07-.06-.07-.08.04,0,.06-.06.16-.11.23-.1.11-.06.21.07.2s.09.14-.04.19c-.07.03-.31.2-.54.38-.47.37-.92.65-1.06.67-.05,0-.13.06-.17.12-.04.06-.2.2-.34.31-.14.11-.39.32-.53.46-.15.14-.3.24-.32.23-.07-.03-.08-.21-.02-.34.05-.12.05-.23.07-1.19.03-1.15.06-1.86.11-2.34ZM46.66,29.52c-.01-.12.03-.25.08-.26.03,0,.05.02.05.06s-.02.12-.06.18c-.05.09-.06.1-.08.02ZM46.96,27.68s.05.05.06.12c.01.12-.05.23-.11.18-.05-.03,0-.3.05-.3ZM57.5,14.96l.11-.12c.06-.06.13-.1.14-.07,0,.03.01.06,0,.07,0,.01-.07.05-.14.07l-.12.06ZM65.39,9.79c.09-.08.3-.1.31-.04,0,.03-.08.06-.18.07-.14.02-.18,0-.12-.04ZM68.93,9.87s.01-.05.04-.06c.03,0,.07.01.09.04.02.02,0,.05-.04.06-.05,0-.08-.02-.09-.04ZM70.85,9.9c0-.07.15-.09.26-.03.04.02.06.05.05.08-.05.05-.3.02-.31-.05ZM75.53,11.22c.13-.03.24-.09.28-.15.06-.11.24-.13.26-.03,0,.03.05.02.11,0,.07-.03.2-.02.37.04.36.12.27.16-.55.33-.51.1-.7.16-.81.24-.1.09-.27.14-.58.19-.24.04-.6.15-.8.23-.52.21-.68.25-.73.2-.02-.03-.07-.02-.12.03-.06.05-.11.06-.19.02-.08-.04-.08-.05-.03-.06.16-.04.35-.09,1-.33.37-.14.78-.28.92-.33.14-.05.34-.14.45-.21.11-.07.3-.15.42-.18ZM75.08,10.63s.03-.04.11-.01c.06.03.1.06.09.08-.04.05-.19,0-.19-.06ZM86.03,19.32c-.09.04-.19.09-.21.11-.02.02-.18.09-.34.16-.16.07-.34.14-.38.16-.21.09-.08-.07.16-.2.64-.34.79-.4.87-.35.06.04.04.06-.09.12ZM86.36,19.59s.26.29.51.65c.25.35.5.74.55.85l.1.22-.21.11c-.11.06-.32.19-.46.28-.41.28-.38.3-.98-.64-.71-1.11-.68-1-.34-1.12.16-.06.4-.16.53-.23.14-.07.27-.12.3-.12ZM50.51,31.61c.1-.07.36-.24.58-.37.55-.34.57-.34.7-.4.06-.03.19-.12.27-.19.09-.08.28-.19.42-.26.14-.06.45-.24.69-.39.24-.15.59-.35.77-.45.19-.1.62-.31.95-.48.34-.17.64-.32.68-.32s.16-.07.27-.15c.33-.23,1.2-.6,1.06-.47,0,.01-.42.28-.91.6-.49.32-1.1.76-1.36.98-.25.22-.47.4-.49.4-.02,0-.09.07-.15.15-.07.08-.14.15-.16.15-.02,0-.12.08-.24.18-.11.1-.22.18-.23.18-.05,0-.46.43-.49.51-.02.04-.08.08-.13.09-.06,0-.18.1-.27.2-.1.1-.3.32-.46.47-.16.15-.53.57-.82.91-.72.87-.65.83-1.59.9-2.08.17-2.34.19-2.35.15,0-.08.7-.65.82-.66.06,0,.27-.14.46-.3.43-.34.89-.68,1.4-1.04.21-.14.47-.33.57-.4ZM50.02,31.11s.08-.13.16-.14c.03,0,0,.04-.04.08-.05.05-.1.07-.12.06ZM50.64,30.34c.07,0,.11.02.11.08.01.12-.11.19-.16.1-.07-.13-.06-.17.05-.18ZM51.46,29.83c.14-.15.18-.16.08,0-.04.06-.1.12-.14.12-.03,0,0-.05.05-.11ZM59.2,27.36c1.37-.74,2-1.04,1.9-.9-.01.02-.32.22-.68.43-.36.23-.78.51-.94.64-.56.47-1.2,1.06-1.47,1.36-.15.16-.39.43-.54.58-.15.15-.35.36-.44.47-.26.3-1.32,1.85-1.58,2.29-.13.22-.28.44-.33.49-.06.05-.47.16-1.04.28-.51.11-1.1.25-1.31.32-.64.2-1.34.32-1.26.22.23-.3,1.65-1.77,2.04-2.12,1.38-1.24,1.97-1.72,2.12-1.74.04,0,.13-.08.22-.18.25-.29,2.17-1.53,3.32-2.15ZM50.88,34.31l.3-.36.5-.06c.51-.07,1.77-.3,2.45-.45.49-.11.71-.15.71-.12,0,.02-.15.37-.33.78-.32.72-.72,1.66-.98,2.31-.06.16-.18.5-.26.76-.07.25-.15.48-.17.5-.02.02-.17-.02-.35-.09-.62-.26-1.02-.36-1.13-.31-.07.03-.18.02-.37-.04-.34-.12-.95-.13-1.64-.04-.31.04-.55.06-.55.04,0-.02.1-.21.22-.43.12-.22.28-.52.34-.66.13-.31.81-1.29,1.27-1.83ZM59.66,44.45c-.13-.21-.25-.4-.25-.42,0-.05-.86-1.27-1.4-1.99-.26-.35-.48-.65-.48-.67s.12-.11.26-.19c.15-.08.28-.18.3-.22.02-.04.2-.19.41-.32,1.08-.71,1.97-1.28,2.02-1.29.04,0,.09.17.15.45.06.26.13.67.18.93.17,1.08.33,1.83.5,2.48.08.28.19.67.24.88.05.21.15.56.22.78.07.22.16.52.19.68.03.15.15.54.26.85s.27.77.36,1.01c.08.24.2.54.26.67.06.13.13.31.16.41.03.1.15.39.25.64.11.26.25.59.3.74.05.15.26.63.45,1.05.21.48.33.79.31.82-.03.02-.25.11-.49.21-.24.1-.61.25-.83.35-.22.09-.44.18-.5.19-.12.01-.11.06-.39-1.33-.07-.33-.22-.91-.34-1.28-.12-.37-.28-.95-.36-1.28-.19-.71-.55-1.74-.88-2.46-.13-.28-.24-.55-.24-.58,0-.08-.26-.5-.66-1.1ZM60.34,34.22c-.01.37,0,.77,0,.88s.02.44.02.74c-.02,1.09,0,1.56.09,2.31l.09.76-.4.25c-.22.14-.57.39-.78.55-.21.16-.75.54-1.21.85-.82.55-.83.55-.93.46-.05-.06-.25-.26-.45-.46-.69-.71-2.02-1.81-2.78-2.3-.22-.14-.4-.29-.41-.32-.03-.17,1.02-2.85,1.43-3.71.15-.29.31-.64.38-.79.13-.32.18-.35.6-.44.19-.04.58-.15.88-.24,1.22-.36,1.89-.56,2.62-.79.98-.31.97-.3.95-.16-.02.13-.07,1.34-.1,2.42ZM59.54,31.45c-.37.12-.84.26-1.05.33-.63.21-1.5.47-1.9.57-.21.06-.44.12-.51.15-.16.05-.21-.05-.09-.18.04-.04.18-.27.31-.5.24-.42,1.98-2.68,2.21-2.86.07-.05.29-.26.49-.47.52-.52,1.13-1.07,1.26-1.13.05-.03.2-.13.31-.24.23-.21.86-.65.95-.66.11-.01.77-.41.83-.49.03-.04.1-.08.15-.09.09-.01.08.02-.08.19-.1.11-.19.2-.21.21-.11.02-.89,1.63-1.19,2.47-.15.42-.29,1.07-.39,1.71-.04.26-.09.52-.11.58-.05.12-.04.12-.99.41ZM61.49,29.02c.26-.99.91-2.39,1.23-2.67.43-.38.62-.52.92-.65.19-.08.38-.19.43-.24.12-.11.22-.1.81.08.61.19,1.03.38,1.54.71.94.61,2.17,1.61,2.09,1.7-.08.09-2.02.93-3.11,1.36-.34.13-.84.33-1.11.45-.27.11-.72.28-.99.38-.27.1-.71.25-.97.35-.61.23-1.14.39-1.18.37-.04-.04.17-1.18.35-1.84ZM65.29,25.21c-.31-.12-.43-.22-.21-.19.06,0,.31-.03.55-.09.25-.06.77-.14,1.15-.19.39-.05.82-.13.95-.16.33-.08,1.09-.17,1.76-.2.3-.01.64-.02.75,0,.12.01.5.03.86.05.36.01.79.04.95.07.17.02.36.03.43.03.1-.01,1.64.16,1.87.22.07.01-.91.7-1.03.72-.03,0-.15.09-.27.18-.2.16-.45.3-1.91,1.05-.75.38-1.83.91-1.96.96-.08.03-.18-.04-.46-.3-.91-.86-2.22-1.67-3.45-2.13ZM74.05,24.18c-.56-.08-1.26-.15-1.54-.15-.29-.01-.55-.03-.58-.04-.04-.02-1.2-.08-1.32-.07-.03,0-.02-.02.02-.05.08-.07,1.88-.25,2.46-.25.21,0,.56,0,.78,0,.21-.01.45,0,.52.02s.43.04.8.05c.37,0,.68.02.69.03,0,0-.17.15-.39.32l-.41.3-1.02-.14ZM41.09,44.25c-.11.17-.24.4-.28.5-.04.1-.07.2-.07.2-.02.03-1.23.53-1.25.51-.03-.03.17-.82.32-1.21.25-.68.6-1.56.74-1.83.08-.15.24-.5.37-.76.12-.27.24-.47.27-.45.02.02.09.16.14.31.39,1.09.31,1.9-.24,2.72ZM39.59,45.9c.82-.44.97-.5.98-.4,0,.03-.02.14-.06.25-.03.12-.05.42-.03.67l.03.46-.2.07c-.2.07-.6.29-.99.54-.23.16-.27.14-.23-.11.02-.1.02-.27,0-.38-.02-.13.02-.35.1-.59.12-.36.14-.39.39-.52ZM50.02,70.65c.49-.23.98-.76.95-1.04,0-.05.05-.2.12-.34.33-.64.38-.91.28-1.69s-.08-.89.16-.92c.07,0,.18-.07.24-.13.17-.17.18-.16.56.14.18.14.44.3.56.35.41.15.3.58-.25,1.07-.09.08-.17.19-.18.23,0,.05-.12.19-.24.32-.43.46-1.32,1.56-1.64,2-.18.25-.35.46-.37.48-.07.02-.48-.24-.46-.3.01-.03.14-.1.28-.17ZM51.35,58.9c-.07-.12-.18-.29-.26-.38-.1-.12-.15-.25-.17-.4-.02-.13-.06-.29-.1-.37-.07-.12-.16-.54-.21-.95-.01-.09-.03-.43-.04-.77-.01-.34-.04-.69-.06-.77-.05-.21.04-.69.2-1.1.12-.29.39-1.19.51-1.67.02-.09.04-.15.06-.14.01.01.12.4.23.85.12.46.26,1.01.32,1.23.19.73.33,2.12.26,2.62-.03.24-.06.48-.05.53.01.12-.43,1.38-.52,1.47-.05.05-.08.03-.17-.14ZM52.1,59.23c.35-.65.36-.65.56-2.11.03-.2.04-.44.03-.53-.05-.41-.02-.65.1-.72.16-.08.14-.19-.02-.13l-.12.05-.06-.42c-.18-1.37-.6-2.96-1.05-4.02-.14-.3-.15-.37-.12-.6.04-.31-.15-1.27-.33-1.61-.18-.36-.17-.38.21-.52.43-.17.92-.5,1.03-.68.15-.28.08-.78-.23-1.48-.33-.77-1.15-2.15-1.52-2.58-.16-.18-.36-.43-.45-.55-.22-.29-.72-.67-1.08-.82-.88-.36-1.53-.8-1.88-1.27-.22-.31-.21-.32.13-.22.1.03.25.09.33.14.08.05.19.08.24.07.23-.03,1.23.52,1.79.99.7.58,2.01,1.85,2.37,2.31.57.7,1.5,2.21,1.73,2.79.05.13.21.45.34.7.13.25.29.61.34.79.05.18.15.57.22.86.07.29.18.65.24.8.05.15.13.43.15.63.04.25.08.38.16.47.07.08.13.22.16.44.03.18.08.36.12.39.03.03.05.08.04.1-.01.02.01.11.07.2.14.25.35,1.9.27,2.17-.03.11-.09.21-.12.21-.04.01-.03.03.04.07.09.06.1.09.07.28-.02.12-.03.44-.02.72,0,.28,0,.55-.02.61-.02.06-.05.24-.06.42-.02.17-.07.49-.13.71-.06.22-.11.55-.12.74-.02.5-.19.89-.61,1.42-.64.78-1.11,1.14-1.82,1.38-.55.19-.61.17-.65-.18-.01-.1-.15-.49-.31-.87l-.29-.69.26-.48ZM54.2,63.9c.58.06,2.03-.21,2.84-.52.16-.07.38-.13.47-.14.1-.01.27-.08.39-.16.12-.07.38-.22.58-.32.2-.11.49-.28.65-.39.16-.11.31-.19.34-.19.03,0,.37.36.76.8.38.44.71.82.71.86.01.12-2.72.35-4.72.39-1.33.03-2.86-.11-2.88-.26,0-.07.49-.12.86-.08ZM60.43,62.55c-.24-.26-.48-.52-.52-.6-.08-.15-.11-.12.47-.64.35-.32.81-.95.79-1.09,0-.04.08-.2.2-.36.31-.42.93-2.09,1-2.66.03-.25.06-.53.07-.63.01-.1.02-.31.03-.47,0-.16.02-.47.04-.69.04-.33,0-2.02-.06-2.58,0-.06.06-.11.28-.17.27-.09,1.27-.44,1.57-.56.19-.07.24-.02.44.41.08.18.21.41.28.52.07.11.29.5.49.88.2.38.52.94.71,1.23.19.3.57.93.84,1.39.56.96,1.36,2.17,2.06,3.1.14.18.47.63.73.99.27.37.57.76.67.87.21.24.2.26-.32.41-.21.06-.43.14-.5.16-.11.05-.53.17-1.6.45-1.19.32-3.19.74-4.75.99-.57.1-1.15.19-1.29.22-.36.08-.44.04-.82-.37-.19-.2-.55-.57-.79-.82ZM62.17,64.19c.06.03,2.3-.33,3.05-.5.32-.07.99-.22,1.49-.34.5-.12,1.16-.27,1.46-.34.31-.06.85-.21,1.21-.33.36-.11.74-.21.83-.23.09-.01.31-.08.49-.15.18-.07.34-.14.35-.15.02,0,.09.05.17.11.08.07.26.26.41.41.14.16.56.58.91.94.36.36.9.92,1.21,1.23,1.02,1.03,1.54,1.51,2.34,2.14.44.34.77.63.76.64-.05.04-.82.32-1.4.51-.29.09-.56.19-.6.21-.04.02-.11.04-.16.04-.05,0-.19.05-.31.11-.13.06-.47.15-.76.2-.29.05-.55.1-.58.12-.04.04-.82.21-1.48.34-.17.04-.48.09-.69.14-.43.08-.56.06-1.03-.19-.12-.06-.32-.14-.45-.18-.36-.11-.65-.23-.9-.36-.12-.07-.51-.28-.87-.47-.96-.52-2.06-1.21-2.86-1.79-.23-.17-.47-.33-.52-.35-.11-.04-2.11-1.69-2.12-1.75,0-.03.02-.03.04-.02ZM75.63,65.74c-.15-.15-.55-.53-.88-.85-.34-.33-.71-.68-.84-.78-.12-.11-.22-.22-.23-.25,0-.03-.13-.16-.3-.3-.16-.14-.29-.28-.3-.32,0-.04-.13-.19-.28-.34-.15-.15-.4-.42-.57-.61l-.29-.34.36-.12c.19-.07.68-.23,1.08-.36.95-.32,2.55-.91,3.13-1.14.15-.06.47-.2.72-.29.25-.1.67-.27.94-.39.27-.12.66-.28.86-.36.2-.08.54-.22.74-.32.37-.18.96-.45,1.37-.64.56-.26,1.36-.67,1.47-.77.07-.07.19-.13.27-.14s.27-.1.43-.19c.84-.49.87-.48,1,0,.06.22.19.78.29,1.25.1.47.23,1.09.3,1.36.06.28.22,1.24.34,2.13l.23,1.63-.46.26c-2.27,1.26-2.98,1.63-4.6,2.38-.65.3-1.34.62-1.54.72-.2.1-.45.2-.54.23-.09.03-.22.09-.27.13-.24.16-.4.09-1.3-.62-.48-.37-.99-.79-1.13-.93ZM92.72,38.42l-.07-.1c-.04-.06-.19-.36-.34-.67-.6-1.29-1.73-3.08-2.79-4.4-.9-1.12-2.4-2.64-3.59-3.63-.31-.26-.55-.49-.53-.51.08-.1,3.63-.54,4.84-.59.64-.03,1.02,0,1.03.09.01.09,1.22,1.4,1.32,1.42.06.02.39.27.4.31,0,.02.06.08.13.13.07.06.16.16.2.21.08.12.31.16.3.04,0-.04-.07-.12-.14-.17-.08-.06-.15-.15-.17-.2-.04-.13-.63-.78-.93-1.01-.14-.11-.25-.21-.25-.23s-.1-.14-.21-.27c-.11-.13-.2-.25-.19-.27.01-.02.2-.02.44-.02.51,0,.58.05,1.43.96.33.36.72.75.85.88.14.13.34.36.45.52.11.15.27.36.36.45.16.16.3.34.84,1.12.89,1.29,1.12,1.67,1.21,2.05l.08.33-.41.51c-.5.61-.81.93-1.07,1.06-.41.21-1,.57-1.22.73-.12.1-.42.29-.66.44-.24.15-.62.39-.85.53l-.42.26ZM90.75,27.37c.35.21.72.45.81.53l.17.15h-.21c-.11-.01-.26-.01-.32,0-.12.01-.47-.25-.99-.75-.44-.42-.25-.39.53.08ZM89.63,27.29s.18.17.31.28c.27.23.44.41.41.44,0,.01-.37.04-.81.07-.43.02-1.12.1-1.54.16-.41.06-1.31.2-1.99.3l-1.24.18-.49-.34c-.93-.66-2.38-1.51-3.68-2.17-.58-.29-1.78-.77-2.43-.97-.35-.11-.79-.26-.97-.33-.18-.07-.57-.19-.87-.26-.63-.15-.68-.18-.53-.31.06-.05.21-.21.34-.36.25-.28.29-.29.86-.22.47.05,1.49.14,1.86.17.21.02.47.05.55.06.09.02.35.06.58.08.53.06.75.09,1.19.19.19.04.53.09.77.11.23.02.5.06.61.08.41.11.77.15.98.14.11,0,.27.02.34.06.17.09.34.08.29-.02-.06-.13.04-.09.28.1.13.1.28.17.35.17.06,0,.25.03.41.09.28.1.3.1.35,0,.06-.12.17-.09.18.06,0,.08.04.09.13.05.08-.03.15-.02.23.04.06.04.24.11.4.14.33.07,1.1.36,1.43.52.16.08.2.12.16.18-.07.11-.13.11-.32-.02-.09-.06-.19-.11-.22-.1-.08,0,.57.49,1.1.8.75.45.91.56.99.64ZM87.27,18.75c.17.21.49.69.72,1.07.23.39.48.79.57.89.08.1.15.19.13.21,0,.02-.16.06-.35.1l-.32.07-.14-.34c-.22-.54-1.21-2-1.69-2.5-.13-.13-.22-.26-.21-.28.04-.05.37-.31.41-.32.02,0,.15.16.3.36.15.2.41.54.57.74ZM40.12,36.39c-.1.1-.2.17-.22.18-.07,0-.14-.21-.22-.62-.11-.6-.13-.92-.07-1.05.02-.03,0-.12-.05-.19-.07-.1-.07-.13-.02-.19.08-.07.16-.61.17-1.17,0-.43.19-2.1.32-2.92.16-1.03.55-2.98.66-3.29.07-.2.13-.43.15-.51.04-.41.49-1.65.86-2.41.08-.17.16-.35.17-.39.06-.24.46-.93.63-1.1.1-.11.25-.33.33-.5.08-.17.19-.38.26-.46s.16-.24.19-.36c.09-.28,1.73-2.28,2.56-3.14.33-.34.63-.68.66-.76.1-.2.8-.8,2.71-2.28.82-.64,3.12-2.11,3.2-2.05.02.02-.27.27-.96.84-.15.12-.32.3-.39.4-.07.1-.25.3-.4.44-.15.14-.33.32-.4.4-.07.08-.26.29-.42.45-.28.3-.73.81-.93,1.08-.05.07-.19.29-.31.5-.11.21-.38.61-.58.88-.2.28-.35.52-.34.54.02.01.13-.11.24-.27.12-.16.33-.41.49-.55.15-.14.44-.45.64-.69.2-.24.46-.52.59-.63.13-.11.35-.34.51-.52.15-.17.41-.42.56-.54.15-.12.47-.4.72-.63.53-.48,1-.89,1.04-.89.02,0,.11-.08.22-.18.11-.09.35-.27.53-.38.18-.12.47-.34.63-.5.17-.16.44-.37.62-.48.17-.11.36-.24.43-.29.23-.17.61-.4.77-.46.08-.03.16-.08.17-.1.02-.03.07-.06.12-.06.11-.01.35-.15.69-.37.12-.08.28-.16.34-.17.07,0,.26-.11.43-.23.17-.11.84-.47,1.49-.77.65-.31,1.32-.64,1.51-.74.18-.09.45-.2.59-.25.14-.05.51-.21.82-.36.31-.15.69-.33.85-.38.16-.06.31-.13.34-.17.03-.05.13-.07.26-.07.11,0,.47,0,.78-.01.32,0,.8-.02,1.09-.02.28,0,.81-.03,1.16-.04.97-.05,2.21-.07,2.51-.05.15,0,.63,0,1.08-.03.82-.05,1.1-.06,1.39-.04.09,0,.53-.01.98-.04,1.26-.07,1.27-.07,1.61.03.18.05.37.09.43.08s.22.06.35.13c.25.16,1.19.56,1.9.81.22.08.58.23.79.34.22.11.45.21.52.22.07.01.18.06.24.11.06.05.21.12.33.16.12.04.32.12.44.17.12.05.26.09.31.09.05,0,.11.02.14.06.02.03.15.1.27.14.12.04.25.11.29.15.05.04.1.07.13.07s.16.05.29.12c.13.07.26.12.29.12.02,0,.1.04.18.11.08.06.16.11.19.11.07,0,1.54,1.12,1.96,1.51.17.16.42.42.56.58.14.16.51.53.82.83.32.29.61.59.66.67.06.07.22.26.38.41.16.15.42.44.58.63.16.19.35.4.44.47l.14.12-.23.3c-.13.17-.31.4-.4.52-.18.25-.37.37-.78.52-.72.26-1.2.48-1.45.65-.45.3-.64.4-.77.42-.07,0-.21.09-.32.19-.33.29-.5.27-.73-.07-.41-.61-.81-1.05-1.35-1.49-.83-.68-.89-.73-.9-.8,0-.03-.05-.1-.1-.15q-.09-.08-.05,0c.04.08.03.08-.04.04-.05-.03-.08-.09-.07-.13.01-.04,0-.08-.04-.09-.03-.02-.04-.05-.03-.08.02-.03.05-.04.1,0,.05.03.08.03.07,0-.01-.11-.85-.72-1.16-.84-.17-.07-.31-.15-.31-.17,0-.03-.21-.17-.46-.32-.76-.46-.72-.44-.53-.42.11,0,.19-.02.28-.11.22-.22.15-.25-.35-.17-.35.05-.48.06-.55,0-.05-.04-.18-.09-.29-.13-.1-.04-.31-.14-.46-.22-.23-.13-.26-.17-.25-.3.01-.15-.16-.27-.19-.13-.02.08-.15.1-.16.03,0-.03-.02-.04-.04-.04-.07.02-.36-.03-.61-.12-.14-.05-.29-.09-.33-.08-.14.02-.23-.11-.13-.18.15-.1.42-.19.4-.12-.05.1.02.06.14-.09.12-.14.35-.23.29-.11-.04.09.11.04.18-.05.03-.05.09-.08.13-.07.04.01.08,0,.09-.05.02-.05.03-.05.06,0,.03.05.05.05.1,0,.08-.09.75-.31.85-.29.04.01.08,0,.09-.03.03-.06.25-.15.74-.3l.35-.1.48.19c.59.23.63.28.26.36-.18.04-.31.1-.37.16-.08.09-.09.09-.1.02-.01-.1-.14-.1-.5.02-.13.04-.42.13-.64.19-.82.22-1.02.35-1.02.62,0,.16.04.17.26.07.12-.05.47-.18.78-.28s.6-.21.63-.24c.03-.03.07-.05.09-.04.02.01.1,0,.19-.04.09-.04.21-.09.28-.11.07-.02.3-.1.52-.19.47-.2.61-.19.96.03.14.09.42.25.62.35,1.19.6,2.63,1.69,4.08,3.09.31.3.64.6.72.67.09.08.26.25.38.38.25.31.48.47.54.42.06-.05-.39-.71-.47-.7-.04,0-.06-.03-.05-.09,0-.05-.04-.16-.1-.23-.18-.22-.8-.86-1.03-1.07-.12-.1-.48-.43-.82-.74-.79-.73-2.37-1.83-3.47-2.43-.93-.5-1.85-.97-2.19-1.11-.56-.23-2.1-.76-2.18-.75-.04,0-.13-.03-.21-.07-.17-.1-.59-.22-1.1-.31-1.12-.19-1.34-.23-1.44-.22-.06,0-.2-.01-.33-.04-.36-.08-1.49-.13-2.21-.09-.23.01-.48,0-.57,0s-.25-.02-.37,0-.39.01-.6,0c-.44-.05-2.77.19-3.27.33-.15.04-.59.16-.98.25-.39.09-.79.2-.9.24-.11.04-.35.12-.55.18-.19.05-.56.18-.81.28-.25.1-.61.22-.8.28s-.45.13-.59.17c-.3.08-1.53.64-1.67.75-.05.04-.25.14-.44.23-.33.15-.53.26-1.24.68-.17.1-.37.21-.44.23-.42.16-2.45,1.51-2.69,1.78-.09.1-.25.25-.36.32-.39.26-1.71,1.55-1.88,1.81-.04.07-.18.21-.3.32-.13.1-.33.32-.45.49-.32.43-1.19,1.45-1.32,1.54-.06.04-.11.12-.1.17s-.13.3-.31.55c-.18.24-.42.63-.53.85-.11.22-.33.59-.48.84-.15.24-.35.62-.46.85-.11.24-.21.45-.23.46-.03.02-.11.25-.2.5-.08.26-.19.52-.23.58-.05.07-.13.27-.18.46-.04.19-.14.45-.21.6-.07.14-.13.31-.14.38-.01.07-.08.29-.15.48-.15.44-.28.97-.37,1.56-.04.25-.09.5-.11.56-.02.05-.03.23-.03.39,0,.17-.02.38-.05.47-.1.33-.18.89-.18,1.34,0,.25,0,.69-.01.98,0,.29,0,.72.01.96.01.24.03.5.03.59,0,.33,0,.84.04,1.23.04.52.01.55-.35.4-.44-.18-.82-.24-1.06-.18-.28.08-.38.17-.37.28.02.14-.05.14-.13,0-.09-.15-.42-.1-.73.11-.13.09-.31.19-.4.22-.09.03-.48.26-.85.5-.37.24-.7.44-.72.44-.11.01-.94.51-1.1.66ZM34.7,47.72c.15-.5.54-1.41.7-1.64.06-.08.1-.19.09-.24-.02-.17.3-.73.48-.81.05-.03.06-.05,0-.1-.06-.06-.05-.1.02-.21.05-.08.08-.16.08-.18s.15-.32.33-.66c.61-1.11,1.53-2.39,2.57-3.55.22-.23.5-.56.63-.72.28-.35.98-.98,1.05-.95.03.01.04.11.04.21-.01.29.1.99.22,1.41.08.25.05.34-.41,1.23-.58,1.11-1.17,2.52-1.34,3.18-.24.96-.3,1.13-.45,1.21-1.65.92-3.18,1.94-3.8,2.54-.24.23-.44.41-.45.4-.03-.02.06-.37.27-1.11ZM39.31,64.8q-.4.48-.84-.21c-.16-.24-.38-.52-.49-.62-.47-.41-.66-.6-.8-.8-.08-.12-.22-.29-.31-.38-.09-.09-.18-.21-.18-.26s-.08-.19-.16-.29c-.08-.1-.16-.22-.16-.27,0-.05-.11-.22-.23-.39-.11-.17-.28-.41-.36-.53-.08-.12-.18-.29-.2-.39-.03-.1-.12-.25-.2-.35-.08-.09-.2-.27-.25-.38-.06-.11-.15-.32-.22-.45-.07-.14-.2-.46-.3-.71-.1-.26-.21-.56-.26-.68-.04-.11-.14-.41-.2-.66-.14-.48-.12-.56.09-.38.17.15.72.29,1.1.27h.36s-.02-.15-.02-.15c-.01-.09-.04-.13-.1-.12-.05,0-.23-.05-.41-.13-.18-.07-.44-.16-.58-.19-.14-.03-.35-.12-.45-.2l-.2-.14-.12-.92c-.13-.95-.18-1.76-.14-2.08.01-.1.02-.31.02-.47-.02-.94.22-2.52.43-2.84.07-.12.17-.29.21-.38.09-.2,1.09-1.28,1.34-1.45.1-.07.41-.28.68-.48.28-.19.59-.4.7-.45.11-.05.29-.16.41-.25.12-.09.35-.23.51-.31.16-.08.36-.19.44-.25.24-.17.26-.14.17.21-.05.18-.08.54-.08.8,0,.53-.07.77-.31,1.12-.52.74-1.17,2.27-1.37,3.27-.09.46-.21,1.04-.27,1.38-.04.22-.13.59-.2.83-.3.98-.18,3.28.26,5.22.28,1.19.92,2.46,1.59,3.11.16.15.31.33.34.39.03.06.15.24.27.38.13.14.37.46.54.71l.31.45-.32.4ZM63.89,73.48c-.1,0-.19-.01-.21-.03-.05-.04.15-.05.27,0,.09.03.07.03-.06.03ZM65.09,73.09c-.1-.01-.25.01-.35.05-.1.04-.21.06-.26.04-.05-.01-.27-.01-.49,0-.22.02-.5.03-.65.02-.66-.04-1.01-.07-1.28-.12-.16-.03-.56-.07-.89-.08-.33-.02-.67-.04-.76-.05-.08,0-.18-.02-.21-.04-.03-.02-.15-.04-.26-.04-.51-.03-1.4-.14-1.82-.23-.43-.09-.73-.14-.99-.15-.08,0-.82-.24-.98-.31-.01,0,.19-.38.43-.83.66-1.21.67-1.24.72-1.25.02,0,.19.09.38.21.19.12.36.21.39.21s.18.07.34.16c.16.09.41.22.56.28.41.18,1.07.51,1.33.66.3.18,2.12.81,2.56.9.19.03.37.08.4.11.08.05.96.21,1.46.27.22.03.45.06.51.08.18.06.06.13-.16.11ZM78.56,71.48c-.13.03-.42.1-.65.17-.52.16-2.45.55-3.03.62-.24.03-.86.1-1.38.16-2.74.33-3.52.41-4.3.46-.47.03-.92.04-1.01.02-.15-.03-.78-.05-1.09-.04-.08,0-.22,0-.3-.02-.08-.01-.21-.02-.29-.02-.25,0-.77-.05-.96-.1-.1-.02-.34-.06-.52-.09-.35-.04-.76-.15-1.62-.44-.28-.1-.63-.2-.76-.24-.14-.03-.4-.12-.58-.18-.18-.06-.35-.11-.38-.11-.08,0-2.07-.88-2.25-1.01-.06-.03-.11-.13-.12-.21,0-.08-.03-.15-.05-.14-.03,0-.09,0-.15,0-.06,0-.18-.02-.27-.06-.09-.04-.24-.07-.33-.07-.17-.02-.91-.46-.92-.56,0-.04.05-.17.11-.29.78-1.57.84-1.69.83-1.76,0-.04.03-.15.07-.25.13-.3.19-.55.14-.64-.09-.17-.91,1-1.47,2.09-.21.4-.97,1.68-1.19,1.98-.06.07-.11.18-.12.24,0,.06-.09.18-.18.28-.09.1-.24.31-.33.46-.09.15-.3.48-.46.71-.16.24-.47.7-.69,1.02-.21.32-.51.73-.64.9-.13.18-.43.56-.66.86-.23.3-.54.7-.7.89-.63.76-1.31,1.56-1.43,1.67-.07.07-.25.28-.4.47-.14.19-.35.42-.45.52-.1.09-.46.54-.81.98-.35.44-.8.96-1,1.14s-.49.45-.63.6c-.14.15-.45.45-.69.68-.25.23-.47.46-.51.51-.04.05-.34.33-.68.62-.33.28-.84.73-1.13,1-.68.63-.78.7-1.79,1.38-.47.32-1.12.78-1.43,1.03-.76.59-1.35.98-1.46.95-.06,0-.14.06-.25.19-.15.2-.39.38-.53.4-.04,0-.03-.03.02-.08.12-.12-.33-.01-.86.21-.37.16-.43.17-.82.16-.23,0-.42-.03-.43-.05s-.18-.1-.39-.18c-.69-.24-.97-.41-1.36-.84-.38-.42-.85-.8-1.02-.83-.12-.03-.59-.52-.55-.59.05-.09.1-1.03.08-1.39-.01-.41.25-1.59.58-2.52.07-.2.15-.48.18-.63.03-.15.1-.36.16-.46.05-.11.11-.28.11-.39,0-.11.07-.37.16-.58.08-.21.16-.44.17-.51.03-.16.83-2.27.91-2.4.06-.1.18-.35.59-1.28.13-.3.32-.68.41-.83.38-.63.51-.86.75-1.39.14-.3.31-.63.38-.72.07-.1.16-.27.21-.4.04-.12.16-.35.26-.49s.23-.37.29-.49c.06-.13.13-.24.15-.27.02-.02.02-.05,0-.07-.06-.04.12-.44.35-.81.11-.17.19-.33.19-.36s.06-.1.13-.17l.13-.11.55.42c.3.23.6.44.67.46.07.03.21.11.31.19.46.33,2.17.95,3,1.08.33.05.61.12.62.15.01.03-.11.29-.29.58-.18.29-.34.59-.37.66-.03.08-.13.28-.23.44-.39.66-1,1.79-1.52,2.8-.17.33-.44.97-.6,1.42-.17.48-.39.97-.53,1.2-.32.52-.86,1.97-.91,2.42-.02.19-.05.47-.07.63-.02.16-.06.41-.08.55-.03.23,0,.42.04.25,0-.03.04-.11.07-.16.05-.09.06-.07.06.14,0,.21.01.24.08.2.04-.02.08-.11.09-.2,0-.09.05-.23.09-.32.05-.08.08-.17.07-.2,0-.04.02-.08.06-.1.04-.02.07-.12.08-.22,0-.1.03-.18.06-.18.03,0,.05-.04.04-.07s.04-.09.1-.13c.06-.04.1-.1.08-.14-.01-.05,0-.1.05-.13.04-.02.07-.07.06-.11,0-.04.02-.09.06-.11.04-.02.07-.13.08-.25,0-.16.04-.22.12-.24.06-.02.13-.09.15-.16.07-.22.19-.59.28-.94.09-.32.1-.32.54-.64.25-.18.54-.39.65-.48.1-.09.21-.17.23-.17.08,0,.43-.25.48-.33.03-.04.12-.12.21-.17.09-.05.23-.16.33-.26.09-.1.31-.33.47-.5.17-.18.29-.34.27-.37-.01-.03.06-.11.18-.17.12-.07.25-.19.3-.28.1-.17,1.39-1.43,1.74-1.7.1-.08.3-.25.42-.38.13-.12.36-.31.5-.42.15-.11.35-.28.46-.39.11-.11.21-.21.23-.21s.14-.12.27-.26c.13-.13.36-.36.51-.5.15-.14.42-.42.59-.63.17-.21.35-.4.39-.42.05-.02.09-.06.08-.08,0-.02.3-.37.67-.77.37-.4.7-.79.73-.87.03-.08.08-.15.1-.15.02,0,.07-.1.09-.2.07-.23.22-.46.32-.47.04,0,.06-.03.06-.05s.19-.29.43-.59c.24-.29.51-.64.6-.76.09-.12.19-.25.22-.29.16-.16.36-.45.6-.85.14-.23.35-.58.46-.75.21-.34.24-.41.14-.4-.04,0-.11-.03-.17-.09l-.1-.09-.04.11c-.02.06-.22.26-.43.44-.26.22-.48.47-.69.78-.17.25-.38.52-.47.59l-.16.13-.22-.2c-.12-.11-.37-.4-.56-.65l-.34-.45.22-.64c.19-.54.23-.63.32-.62.06,0,.24.02.39.04.16,0,.5.03.76.06,1.22.11,2.74.11,3.97,0,.32-.02.8-.05,1.06-.05.26,0,.93-.07,1.49-.15l1.02-.14.89.74c1.02.86,2.12,1.71,2.58,1.99.17.1.57.35.87.54.31.19.67.4.8.47.13.07.46.27.74.45.28.17.55.33.59.34.04.01.34.16.66.32.32.16.63.32.69.34.18.08.08.11-.52.21-.31.05-.59.11-.61.13-.02.02-.71.12-1.53.22-.97.12-1.53.21-1.61.26-.09.05-.15.05-.26,0-.16-.06-1.69.03-1.73.11,0,.02-.11.04-.23.05-.12,0-.2-.02-.19-.04.03-.08-.14-.1-.21-.03-.05.04-.09.05-.17,0-.12-.07-.82.01-.93.1-.1.09,0,.14.23.11.12-.01.24,0,.28.03.04.03.28.03.6,0,.29-.03.58-.03.64-.01.1.04.86.05,1.11.02.07-.01.72-.08,1.43-.14,1.62-.16,3.44-.38,4.11-.52l.51-.1.51.18c.48.17,1.51.5,1.75.56.06.01.23.06.38.1,1.46.42,3.52.63,5.32.56.4-.02.73-.01.74,0,0,.06-.18.14-.44.18ZM82.39,70.22c-.16.06-.65.21-1.32.41-.16.05-.44.09-.61.1-.45.01-.92.03-1.38.06-.22.02-.42.02-.46,0-.03-.02-.23-.02-.43-.02-.21,0-.58-.02-.85-.05-.26-.03-.74-.06-1.07-.08-.33-.02-.81-.07-1.08-.11-.26-.04-.59-.09-.74-.11-.14-.02-.5-.09-.8-.16-.29-.07-.63-.15-.75-.16s-.25-.05-.29-.08c-.05-.03-.29-.12-.55-.19-.26-.07-.47-.15-.48-.17s.17-.07.39-.12c1.74-.37,2.28-.51,2.87-.72.28-.11.68-.23.9-.29.21-.05.61-.18.88-.28.68-.25.8-.26,1.09-.1.13.07.6.35,1.04.62,1.06.63,1.49.84,1.91.94.19.05.53.15.76.22.23.08.44.13.48.13.03,0,.19.02.36.04l.3.05-.17.06ZM84.93,68.76c-.08.12-.15.25-.14.28,0,.02-.08.08-.2.12-.11.04-.37.18-.57.31-.4.24-.37.24-1.08.19-.98-.07-2.51-.5-3.07-.86-.2-.13-.66-.41-1.04-.63-.37-.22-.68-.42-.69-.44s.22-.13.5-.24c.28-.11.6-.24.73-.29.78-.31,3.65-1.67,4-1.89.13-.09.35-.21.48-.28.14-.06.54-.28.9-.48.36-.2.67-.36.7-.37.02,0,.06.17.08.38.06.45.02,1.56-.06,2.05-.03.19-.08.57-.1.84-.05.51-.18.9-.44,1.3ZM91.04,64.41c-.43.66-1.25,1.64-1.5,1.8-.18.12-.62.28-.76.27-.04,0-.12.05-.2.12-.07.07-.16.12-.2.13-.03,0-.18.1-.33.21-.15.11-.45.3-.66.43-.21.12-.46.28-.55.35-.09.07-.22.16-.29.19-.07.03-.2.11-.29.18-.09.07-.26.17-.38.22l-.22.09v-.21c.02-.12.05-.41.1-.64.23-1.32.26-1.69.26-2.74,0-.51,0-.94.03-.96.02-.03.49-.32,1.06-.66,1.93-1.14,3.77-2.32,4.14-2.67.08-.08.26-.21.39-.3.39-.26,1.48-1.1,1.84-1.42.31-.27.4-.34.41-.29,0,.03-.25.82-.44,1.36-.19.54-.74,1.84-.92,2.15-.16.29-.47.82-.66,1.14-.09.15-.24.38-.34.51s-.33.46-.52.73ZM99.66,51.38c-.08.4-.21.91-.33,1.28-.06.19-.1.36-.09.38.03.02-.18.78-.26.9-.03.04-.15.34-.25.65-.11.31-.22.59-.24.63-.02.03-.12.29-.23.59-.11.29-.25.61-.3.71-.06.1-.14.31-.2.47-.05.16-.18.43-.28.59-.2.29-.58.92-.97,1.56-.12.2-.28.42-.35.49-.07.07-.2.24-.29.36-.08.12-.36.5-.62.84-.26.33-.5.65-.54.7-.13.18-1.25,1.29-1.5,1.48-.08.06-.16.14-.19.18-.02.03-.15.15-.28.26-.13.1-.25.21-.28.24-.02.02-.19.19-.38.38-.18.18-.35.36-.36.39-.01.03-.05.06-.08.06-.05,0,.34-.68.75-1.31.2-.31.85-1.58,1.13-2.18.06-.14.17-.36.25-.51.08-.14.17-.38.2-.52.03-.14.08-.3.11-.34.03-.05.1-.27.16-.49.06-.22.17-.63.25-.91l.14-.51.44-.42c1.11-1.04,1.81-1.82,2.66-2.95.83-1.11,1.24-1.79,1.85-3.11.09-.18.11-.15.06.1ZM99.98,43.74c.1.98.17,1.8.15,1.84-.01.03-.03.2-.02.37.01,1.25-.02,1.99-.13,2.58-.03.16-.05.39-.06.51-.01.13-.04.27-.08.32-.03.06-.09.19-.11.29-.03.1-.17.5-.32.88-.61,1.58-1.49,2.96-2.97,4.67-.39.45-1.45,1.55-1.5,1.56-.04,0,.09-.96.23-1.77.06-.33.11-.74.12-.92,0-.18.04-.48.07-.67.08-.49.11-1.2.08-1.5-.02-.14-.01-.48,0-.74.03-.29,0-.94-.03-1.6-.05-.71-.05-1.13-.02-1.17.03-.04.33-.37.67-.75.34-.37.74-.86.9-1.09.15-.22.5-.69.76-1.03.49-.66.93-1.33,1.07-1.63.05-.1.13-.27.2-.38.24-.41.43-.98.43-1.3,0-.41-.03-.38-.53.6-.73,1.45-2.04,3.32-3.01,4.32-.23.24-.45.48-.48.53-.03.05-.08.09-.1.09s-.13-.61-.24-1.36c-.4-2.72-.94-4.62-2.06-7.27-.07-.17-.12-.33-.1-.35.02-.02.23-.15.47-.29.8-.46,2.48-1.57,2.62-1.74.08-.09.28-.26.44-.36.47-.33.8-.59,1.02-.79.25-.24.26-.24.38,0,.46.91.93,2.04,1.04,2.49.05.21.05.28-.02.38-.08.11-.07.11.06.14.11.03.14.08.2.3.1.43.13.51.22.73.06.15.08.25.05.34-.03.08-.02.15.02.2.04.05.07.26.08.48.01.22.07.54.12.73.08.29.09.36.03.53-.07.21-.08.33-.01.17.11-.26.15-.08.33,1.66ZM98.3,27.22c-.08-.15-.19-.32-.25-.38-.06-.07-.25-.34-.43-.62-.19-.3-.49-.67-.73-.92-.23-.23-.45-.47-.5-.54-.16-.24-.7-.79-1.21-1.22-.28-.25-.7-.62-.93-.81l-.4-.36h.31c.17,0,.54.04.82.09.61.1.87.23,1.33.67.18.17.51.42.72.54l.4.23.04.38c.06.54.14.8.26.81.06,0,.11.06.11.12s.05.12.1.15c.05.03.13.13.19.22.06.1.14.16.21.16.08,0,.11.03.12.12,0,.06.02.11.05.11.03,0,.08.05.12.12.07.14.37.29.54.27.06,0,.11,0,.12.03s.05.12.1.22l.1.17.09-.12c.16-.21.21-.07.1.28-.09.29-.1.37-.04.85.05.35.11.61.19.75.06.12.12.27.12.33.02.17.21.46.42.67.11.1.2.21.2.23,0,.08.62.68.83.82.23.15.61.78.78,1.29.04.12.11.26.17.3.08.07.09.11.06.25-.03.13-.01.22.05.37.04.11.08.22.08.25,0,.03-.02.18-.05.34-.02.16-.04.38-.04.49,0,.25-.12.68-.28,1-.07.14-.17.35-.22.46l-.09.21-.06-.18c-.03-.1-.08-.18-.1-.18-.05,0-.25-.75-.3-1.16-.03-.18-.11-.56-.2-.83-.3-.95-.59-1.79-.64-1.89-.07-.12-.43-.99-.53-1.3-.04-.11-.16-.36-.26-.54-.69-1.18-1.02-1.7-1.16-1.85-.1-.09-.24-.29-.31-.43ZM101.15,47.04c.01-.27.02-.61.01-.76,0-.14,0-.33.02-.4.02-.08,0-.22-.02-.31-.03-.11-.03-.27.01-.43.07-.26.03-.69-.14-1.66-.16-.92-.29-1.88-.25-1.89.02,0,.09.05.18.11.09.07.21.1.3.09.08,0,.22,0,.31.04.15.05.17.08.2.35.07.59.55,1.26,1.21,1.69.48.31.49.31,1.69.17l1.07-.12.07.14c.04.08.18.27.31.42.23.28.42.54,1.28,1.81.23.34.49.71.58.81.09.1.2.27.25.38.05.1.2.33.33.51.14.18.28.39.32.48.05.09.14.23.22.32.08.08.14.17.15.2s.16.27.36.54c.19.27.42.61.51.76s.25.4.35.56c.25.38.45.75.41.75s-.16-.02-1.02-.19c-.82-.17-1.44-.33-1.55-.4-.05-.03-.26-.1-.46-.15-.21-.05-.46-.14-.56-.2-.11-.06-.22-.1-.27-.1-.05,0-.19-.03-.33-.08-.85-.31-1.47-.53-1.52-.52-.03,0-.13-.04-.23-.1-.1-.06-.24-.12-.31-.14-.08-.02-.29-.11-.48-.2-.19-.09-.51-.23-.73-.3-.22-.08-.5-.21-.63-.29-.12-.08-.25-.15-.26-.14-.09.01-.95-.48-1.22-.68-.19-.15-.19-.11-.15-1.07ZM114.63,57.42c-.24-.07-.78-.15-1.38-.22-.41-.04-1.28-.19-1.4-.23-.11-.04-.67-.18-1.11-.27-.17-.04-.51-.13-.76-.21-.25-.08-.48-.15-.5-.15-.08,0-.94-.26-1.03-.32-.12-.08-1.36-.48-1.46-.46-.03,0-.12-.02-.2-.05-.08-.03-.23-.08-.34-.11-.1-.03-.23-.1-.29-.14-.05-.05-.45-.22-.87-.37-.42-.16-.86-.35-.97-.43-.11-.08-.29-.18-.39-.21-.1-.04-.28-.12-.38-.18-.11-.06-.29-.15-.41-.19-.12-.04-.27-.14-.33-.22-.08-.1-.21-.18-.41-.23-.16-.04-.31-.1-.33-.12-.01-.02-.02-.24,0-.47.06-1.1.04-2.1-.05-2.74-.05-.36-.08-.65-.06-.65.09-.01.82.27,1.57.6.44.19.94.4,1.12.46.18.07.56.21.84.31.28.11.71.25.94.31.24.06.68.21,1,.32.31.11.75.24.97.27.22.04.65.14.97.22.56.15,1.17.24,1.46.21.19-.02.27.06.74.74.22.33.45.67.52.76.12.17.55.52.58.48.03-.04-.27-1.11-.34-1.2-.03-.05-.06-.13-.07-.17-.01-.12-.15-.38-.32-.63-.07-.1-.2-.33-.28-.5s-.27-.5-.41-.72c-.14-.23-.34-.59-.43-.81-.4-.94-.53-1.21-.78-1.61-.27-.43-.65-.93-.78-1-.03-.03-.15-.17-.24-.33-.1-.16-.33-.52-.52-.8-.19-.28-.35-.55-.36-.6,0-.06-.06-.15-.13-.21-.06-.06-.13-.18-.13-.25,0-.08-.07-.16-.14-.21-.09-.04-.13-.12-.15-.23-.02-.13-.04-.16-.12-.15-.09.01-.11-.02-.14-.23-.04-.22-.03-.25.09-.32,1.19-.66,2.21-1.72,2.48-2.59.16-.49.15-.49.56.02.15.18.35.46.45.62.09.16.2.32.23.36.09.11.44.67.44.7,0,.02.1.15.21.3.11.15.27.41.37.59.18.34.48.7,1.06,1.3.43.44.57.6.58.69,0,.04.1.21.22.38.12.17.36.56.54.87.18.3.38.64.46.75.07.11.13.21.14.23s.18.31.4.65c.52.81.88,1.5,1.08,2.09.09.26.21.56.27.66.33.57.96,2.84.94,3.39-.02.42-.03.5-.11.51-.1.01-.19.16-.11.19.09.04.02.14-.09.12-.08-.01-.27.13-.62.43-.07.07-.09.11-.05.12.13.06-.26.34-1.07.76-.33.17-.81.23-1.14.13Z" fill="#34162d"/>
      <path d="M77.51,30.3c.31-.19,1.03-.34,2.45-.52.17-.02.3-.03.4-.04.56-.06,1.25,0,1.94.35.4.11.89.3,1.05.42.33.24.62.23.77-.05.12-.22.05-.49-.18-.69-.21-.18-.25-.24-.07-.31l-.52-.36-.14.03-.57-.32c-.82-.47-1.18-.58-2.41-.76-.78-.11-2.4.06-2.74.3-.08.06-.18.1-.22.11-.13.02-.63.37-.77.55-.17.21-.28.52-.26.73.02.14.1.23.39.47.42.35.48.36.9.1Z" fill="#34162d"/>
      <path d="M84.47,39.27c-.67.11-1.03.08-1.44-.11-.18-.08-.4-.17-.49-.21-.72-.31-2.04-1.32-2.39-1.83-.05-.08-.16-.16-.24-.19-.08-.03-.21-.15-.29-.27-.15-.21-.58-.55-.7-.54-.17.02-.16.46.02.68.07.09.13.25.15.38.03.27.37.83.68,1.15.12.12.22.24.22.27s.06.09.12.14c.06.04.12.11.12.14,0,.04.14.15.29.25.16.11.39.3.53.44.14.14.32.29.42.32.09.04.27.15.4.25.28.22,1.3.59,1.78.65,1.61.19,3.04-.55,3.49-1.79.25-.69.27-.89.17-1.74-.11-.96-.29-1.49-.69-2.02-.14-.18-.29-.41-.34-.52-.16-.32-.49-.72-.88-1.03-.41-.33-.45-.34-.55-.2-.21.3-.14.9.14,1.27.08.1.15.24.16.29.01.12.31.94.45,1.24.17.36.26,1.27.17,1.69-.17.83-.49,1.14-1.3,1.26Z" fill="#34162d"/>
    </g>
  </g>
</svg>