<?xml version="1.0" encoding="UTF-8"?>
<svg id="Layer_1" xmlns="http://www.w3.org/2000/svg" version="1.1" viewBox="0 0 132.94 95.03">
  <!-- Generator: Adobe Illustrator 30.2.1, SVG Export Plug-In . SVG Version: 2.1.1 Build 1)  -->
  <ellipse cx="64.7" cy="47.9" rx="61.31" ry="46.12" transform="translate(-7.93 13.18) rotate(-10.96)" fill="#c7ff15"/>
  <g>
    <g>
      <path d="M77.18,21.4c-.17.08-.14.11.63.73,1.67,1.34,2.06,1.91,3.28,4.9.59,1.44.78,2.2.86,3.43.04.6.06.68.12.67.16-.05.25-.97.17-1.71-.11-.99-.45-2.13-.98-3.26-.11-.24-.28-.64-.36-.9-.26-.71-.49-1.12-1.11-1.93-.53-.69-1.6-1.57-2.29-1.9-.1-.04-.19-.08-.19-.08,0,0-.05.03-.1.05Z" fill="#34162d"/>
      <path d="M29.71,25.45c.04-.09.28-1.04.33-1.32.1-.56.44-1.82.58-2.15.08-.18.22-.53.3-.76.09-.24.19-.51.24-.59.05-.09.15-.32.24-.52.6-1.39,1.56-2.81,3.08-4.55.51-.57.59-.78.31-.72-.6.13-1.75,1.28-2.73,2.75-1.23,1.83-2.02,3.65-2.38,5.42-.11.55-.31,2.18-.28,2.31.03.16.24.25.31.12Z" fill="#34162d"/>
      <path d="M28.97,22.51s.13-.37.23-.76c.43-1.66.99-2.95,1.99-4.54.28-.44.36-.59.35-.68-.04-.6-1.34,1.13-2.02,2.67-.5,1.14-.94,2.65-.91,3.13.02.24.22.34.36.18Z" fill="#34162d"/>
      <path d="M29.63,60.58c-.07.14-.08.7-.01.94.37,1.28,1.79,2.72,3.14,3.18.28.1.5.08.5-.04,0-.05-.53-.44-.91-.68-1.31-.83-2.25-2.01-2.51-3.19-.06-.29-.14-.36-.22-.21Z" fill="#34162d"/>
      <path d="M82.48,42.37c-.05-.81-.4-2.21-.74-2.95-.1-.21-.24-.55-.3-.75-.28-.85-.54-1.38-.87-1.79-.17-.21-.17-.24,0-.45.16-.2.28-.42.45-.84l.13-.32-.05-.25c-.16-.82-.53-1.35-1.08-1.55-.14-.05-.14-.06-.11-.15.12-.28.27-1.16.32-1.85.05-.66.05-.74-.02-1.16-.13-.83-.23-1.1-.74-2-.19-.34-.25-.48-.28-.69-.16-1.01-.83-2.55-1.36-3.11-.22-.24-.67-.55-1.18-.82-.24-.13-.28-.16-.4-.39-.15-.28-.3-.4-.68-.57-.14-.06-.39-.17-.55-.25l-.29-.14-.46.03c-.65.05-.95.21-1.29.71l-.12.18-.13-.07c-.31-.16-.62-.21-1.15-.2h-.5s-.28-.15-.28-.15c-.15-.09-.4-.2-.56-.26-.39-.14-.37-.12-.45-.45-.21-.87-.91-2.68-1.3-3.36-.07-.12-.31-.57-.54-1.02-.88-1.68-1.64-2.7-2.74-3.69-.57-.51-1.26-1.08-1.58-1.28-.14-.09-.32-.22-.41-.29-.09-.07-.36-.26-.62-.43-.25-.17-.57-.38-.71-.47-.61-.4-1.47-.74-1.87-.74-.22,0-.38-.03-.83-.17-.73-.22-1.1-.3-1.8-.4-.31-.04-.58-.08-.59-.09-.01-.01-.35-.04-.74-.07-.76-.05-1.94-.04-3.04.05-.29.02-.79.07-1.11.11-.31.04-.77.09-1.01.12-1.02.11-3.24.75-4.95,1.42-1.53.6-4.15,2.02-5.38,2.93-1.8,1.31-2.74,2.15-3.67,3.27-2.28,2.74-3.16,4.32-4.18,7.5-.4,1.23-.59,2.15-.74,3.61-.08.71-.08.93,0,1.41.08.45.19.58.48.55.1-.01.22-.04.26-.05.06-.03.06-.02.04.09-.11.46-.16,1.38-.09,1.85,0,.05.02.31.04.58.02.32.07.71.15,1.09l.13.59-.22.34c-.48.75-.85,1.74-.79,2.13.01.08-.02.11-.28.3-.16.11-.4.31-.53.44-.4.39-1.03,1.24-1.12,1.49-.02.07-.14.36-.27.64-.21.48-.58,1.48-.72,1.94-.26.87-.35,2.69-.15,3.11.03.06.08.27.12.47.19.93.67,2.13,1.1,2.71.07.09.17.24.22.33.05.09.17.24.25.34.2.22.2.2,0,.4-.2.19-.49.72-.58,1.08-.06.21-.06.49,0,.78.08.42.63,1.11,1.2,1.51.07.04.03.35-.13,1.08-.17.78-.28,2.97-.18,3.69.18,1.33.58,2.7.93,3.18.32.45,1,.95,1.54,1.15.74.27,1.39.25,2.18-.07.19-.08.53-.22.76-.3.61-.24,1.51-.89,2.48-1.79.19-.18.49-.45.68-.63.79-.71,1.54-1.57,2.26-2.56l.28-.38.21.15c2.7,1.89,4.95,2.81,7.91,3.26.19.03.36.06.49.08,1.82.09,4.83.1,7.63-.47.55-.15.58-.15.64-.16.01,0,.03,0,.03,0,1.36-.33,2.64-.81,3.67-1.5l.54-.28c2.5-1.29,4.85-3.37,6.88-6.11.86-1.16,1.03-1.41,1.46-2.15.8-1.38,1.11-2.09,1.59-3.61.06-.21.14-.38.15-.38s.26.09.54.2c.28.11.6.22.72.25.12.03.4.1.63.17.58.17,1.68.41,2.05.44,1.77.16,2.95.02,3.77-.43.68-.37,1.2-1.15,1.33-2,.03-.18.07-.39.09-.47.08-.27.12-.85.1-1.29ZM76.33,24.1c.73.23,1.03.61,1.82,2.24.16.34.29.62.28.63s-.1-.07-.21-.18c-.33-.32-1.03-.76-1.33-.84-.14-.04-.35-.1-.46-.13-.46-.14-.74-.1-1.09.16-.09.07-.17.12-.18.11-.11-.13-.43-1.05-.42-1.21,0-.19.11-.51.19-.59.27-.29.85-.37,1.4-.2ZM73.47,23.36c.26-.51.7-.68,1.28-.5.45.14.75.3.98.51l.21.2h-.44c-.37.03-.47.04-.61.11-.32.15-.58.44-.69.75l-.05.15-.06-.1c-.03-.06-.18-.26-.32-.45-.36-.46-.38-.52-.3-.67ZM74.16,25.51c.08.28.19.5.36.74.34.45.35.47.34.93-.01.69.11,1.22.37,1.57.07.1.16.23.18.3.03.07.16.23.29.37.27.28.31.38.36.81.13,1.03.12,1.31-.04,2.13-.05.24-.1.5-.11.59-.02.13-.36.08-.37-.14-.03-.8-.2-1.91-.41-2.73-.68-2.68-1.61-4.46-3.15-6.03-.23-.23-.06-.4-.03-.4.03,0,.2.07.37.15s.43.22.56.3M49.84,11.14c.54-.15,1.77-.34,2.76-.43.38-.04.86-.08,1.05-.1.65-.07,2.12-.07,2.63,0,.25.03.72.09,1.04.12.58.06,1.05.17,2.12.48.89.26,2.47,1.04,3.18,1.56.13.1.51.38.84.62,1.22.89,1.62,1.23,2.08,1.75,1.27,1.44,2.79,4.32,3.42,6.46.09.3.17.57.18.6.02.05.02.06-.74.1h-.14s-.23-.64-.23-.64c-.55-1.6-1.28-2.94-2.28-4.17-1.84-2.28-2.68-3.02-4.64-4.13-1.17-.66-2.03-.95-3.66-1.23-1.37-.24-1.51-.25-2.89-.23-2.02.02-2.75.13-4.69.72-2.92.88-5.79,2.57-7.77,4.57-.65.65-1.07,1.16-1.71,2.09-.27.38-.58.83-.71,1-.75,1.06-1.53,2.75-2.16,4.65-.32.97-.44,1.48-.51,2.15-.03.27-.08.75-.12,1.05-.04.3-.08.74-.11.98l-.04.42-.2-.02c-.11-.01-.37-.04-.58-.07l-.39-.05.05-.56c.07-.81.33-2.27.54-3.05.78-2.87,1.49-4.49,2.85-6.51,1.47-2.17,2.61-3.43,4.17-4.6,1.2-.9,2.08-1.45,3.32-2.08,1.51-.77,2.73-1.31,3.32-1.47ZM37.86,50.25l.08-.1.37.18c.38.19.85.33,1.19.38.58.08,1.63-.03,2.19-.24.34-.12.96-.42,1.11-.53.08-.06.15-.11.15-.11,0,0,.09.16.2.36.26.49.36.67.76,1.24.19.28.34.52.34.54,0,.06-1.47.05-2.36-.02-1.34-.1-3.34-.47-3.58-.66-.11-.09-.53-.83-.53-.93,0-.02.04-.08.08-.13ZM37.88,47.04s-.09-.18-.16-.37c-.08-.18-.24-.56-.35-.83l-.21-.49v-.43c.02-.4.03-.45.14-.71.22-.54.85-2.26.88-2.4.04-.18.06-.14.18.28.28.97.34,1.48.29,2.51-.04.76-.04.79-.17,1.21-.14.44-.54,1.28-.59,1.22ZM37.39,29.46c-.04-.13.01-.7.15-1.72.25-1.8.67-3.22,1.5-5.02.68-1.47.88-1.8,1.49-2.46,1.46-1.57,3.07-2.73,5.02-3.61,2.32-1.05,4.56-1.69,6.67-1.93.37-.04,1.76-.04,2.24,0,.82.07,1.24.15,1.99.36,1.31.36,3.05,1.16,3.85,1.75,1.37,1.02,2.31,1.99,3.22,3.32.51.74,1.61,2.79,1.54,2.86,0,0-.09-.03-.18-.09-.52-.32-2.39-1.09-3.5-1.46-.87-.28-2.43-.61-3.47-.72-1.07-.12-3.5-.07-4.54.08-3.27.48-6.22,1.64-9.01,3.51-2.23,1.51-3.52,2.75-5.27,5.08-.61.81-1.27,1.94-1.42,2.43q-.08.26-.3.39c-.12.07-.29.19-.37.26s-.16.11-.17.1c-.08-.14-.1-.69-.05-1.55l.05-.92.13-.03c.08-.02.17-.08.26-.19.17-.19.21-.29.16-.45ZM68.07,33.01c.65,1.5,1.31,4.11,1.51,6.03.07.69.13,1.77.11,2.16l-.02.33-.2.22c-.46.52-2.75,2.33-3.85,3.06-1.64,1.08-2.75,1.79-3.1,1.96-.09.05-.36.2-.59.34-.24.14-.44.24-.46.23-.02-.01-.41-1.61-.43-1.7-.06-.31-.15-.5-.25-.52-.17-.04-.2.15-.11.51.08.31.44,1.86.27,1.94-.27.14-1.05.45-1.8.72-.42.15-.85.31-.94.36-.46.24-2.05.75-3.56,1.16-.84.23-1.69.46-1.89.52-.88.24-1.1.3-1.14.3-.13,0-1.05-1.89-1.74-3.56-.27-.64-.55-1.32-.63-1.51-.08-.19-.18-.45-.22-.58-.04-.13-.16-.46-.27-.74-.31-.82-.45-1.26-.66-2.21l-.07-.33.24-.13c.13-.07.09-.33-.03-.28-.29.12-.3.12-.34-.06-.02-.08-.06-.27-.1-.41-.3-1.09-.71-3.95-.82-5.73-.02-.36-.05-.79-.06-.96-.04-.63-.04-1.33,0-1.37.04-.04,1.52-.89,2.15-1.24.45-.25,2.4-1.19,3.59-1.74,1.11-.51,2.61-1.14,2.73-1.14.02,0,.11.15.21.34.17.34.76,1.46.85,1.61.06.1.15.11.12.01-.01-.03-.08-.26-.16-.5-.18-.58-.24-.76-.42-1.2-.08-.21-.15-.39-.15-.4,0-.06.72-.34,2.05-.79.72-.24,3.8-1.1,4.47-1.25.22-.04.55-.13.74-.18s.37-.1.42-.1c.05,0,.28.21.7.62,1.18,1.18,2.33,2.88,3.14,4.65.33.71.48,1.03.71,1.54ZM53.39,24.39c-.07.03-.17-.07-.79-.72-.39-.41-.83-.84-.97-.95-.24-.2-.9-.55-1.01-.55-.15,0,.06-.08.59-.23.76-.22,1.67-.3,2.61-.25,1.08.06,3.4.55,3.25.68-.19.17-3.37,1.92-3.68,2.02ZM53.5,25.38c.64.95,1.73,2.76,1.73,2.88,0,.04-.11.09-.34.18-.79.28-2.22.91-3.63,1.61-.43.21-.97.47-1.2.58-.51.24-1.36.7-2.37,1.27-.41.23-.76.41-.77.4-.04-.02.09-2.82.15-3.09.02-.12.11-.61.19-1.09.18-1.05.19-1.07.3-1.11.82-.26,2.26-.76,2.77-.96.82-.32,2.33-.95,2.59-1.08.24-.12.22-.13.58.4ZM50.8,22.68c.4.19.62.37,1.49,1.27l.65.67-.14.06c-.08.03-.31.13-.52.21s-.8.32-1.31.53c-1.01.41-1.31.52-2.46.92-1.01.35-.98.34-.95.24.01-.05.07-.28.13-.51.21-.82.67-2.1.87-2.42.29-.47.77-.98,1.01-1.08.1-.04.24-.05.52-.05.37,0,.39.01.71.16ZM48.53,23.07c-.41.54-.93,1.86-1.3,3.34-.05.2-.1.37-.11.38-.03.03-1.23.42-1.6.52-.26.07-1.74.34-1.76.32-.02-.02.49-.81.77-1.19,1.18-1.57,2.56-2.79,4.01-3.54.19-.1.2-.09,0,.16ZM46.39,23.89c-1,.78-2.11,2.08-2.87,3.36-.17.28-.31.51-.31.52,0,0-.27.06-.58.13-.31.07-.64.13-.73.16-.09.02-.32.06-.5.09-.19.03-.39.06-.46.07l-.12.02.17-.19c.9-1.04,2.34-2.28,3.79-3.25.81-.55,1.94-1.22,1.94-1.15,0,0-.14.12-.3.25ZM42.35,28.28c.25-.05.49-.1.55-.1h.1s-.17.33-.17.33c-.59,1.15-1.21,2.73-1.43,3.59-.05.19-.1.36-.1.37,0,0-.14-.06-.29-.14-.87-.49-1.41-.64-2.18-.59-.22.01-.4.01-.4,0,0-.13,1.4-2.22,1.98-2.98l.17-.22.22-.02c.83-.09,1.16-.13,1.56-.22ZM41.75,32.19c.3-1.04.91-2.55,1.47-3.62.32-.62.18-.54,1.28-.73.8-.14,1.35-.28,2.05-.51.25-.08.46-.14.46-.12,0,.02-.02.22-.06.45-.25,1.39-.3,1.83-.38,3.43l-.07,1.55-.45.26c-.9.53-1.54.96-2.38,1.6-.19.15-.36.27-.38.27s-.07-.06-.12-.14c-.32-.51-.92-1.28-1.22-1.57l-.34-.33.15-.53ZM44.77,34.15c.44-.33,1.64-1.1,1.71-1.1.02,0,.04.14.05.38,0,.21.01.48.03.6.01.12.05.64.09,1.17.11,1.71.39,3.8.72,5.36.1.49.2.93.2.96.01.08-.13.17-.65.43-.21.11-.57.3-.79.43-.47.29-.48.29-.47.11.02-.37-.15-1.89-.28-2.5-.34-1.67-.51-2.13-1.46-4.04-.22-.44-.4-.81-.4-.81,0-.02.85-.68,1.26-.98ZM63.14,25.88s-.33.1-.67.18c-1.77.43-4.31,1.14-4.54,1.26-.06.03-.25.1-.41.15-.16.05-.63.21-1.03.36-.41.15-.77.29-.8.3-.04.01-.07,0-.1-.06-.06-.12-.6-1.11-.78-1.43-.14-.25-1.06-1.66-1.2-1.85l-.07-.08.98-.51c1.03-.54,1.82-.98,2.55-1.41.53-.32.45-.32,1.24.04.56.26,1.17.56,1.98,1,.48.26.95.56,1.28.83.15.12.53.39.83.61.67.47.8.58.74.62ZM57.54,22.06s-.23-.06-.45-.14c-.62-.23-1.85-.46-2.75-.54-.34-.03-.37-.06-.08-.1.14-.01.27-.04.3-.04.14-.04,1.97-.07,2.37-.05.55.03,1.75.15,1.77.18.01.01-.01.04-.05.07-.13.1-1.07.61-1.12.62ZM43.37,49.59s.13-.16.29-.32c.61-.65,1.07-1.43,1.48-2.52.43-1.14.47-1.33.54-2.63l.06-1.1.49-.3c.7-.43,1.36-.8,1.41-.79.02,0,.16.4.3.89.24.83.51,1.66.72,2.28.05.15.24.6.41,1.02s.43,1.04.58,1.4c.34.85.68,1.57,1.14,2.47.21.4.37.74.37.74-.03.03-1.19.32-1.97.5-1.78.4-2.43.52-3.66.65l-.77.08-.08-.1c-.26-.33-1.33-2.16-1.32-2.27ZM46.07,52.19c1.14-.12,3.3-.57,4.87-1,.49-.13.35-.27,1.36,1.33.49.78,1.03,1.6,1.21,1.83.17.22.46.6.63.83.18.23.43.54.57.69.14.15.24.27.23.28s-.35.1-.77.21c-1.21.33-2.12.51-3.29.64-.33.04-.64.08-.71.09-.14.03-.53-.22-1.32-.83-.7-.54-.82-.65-1.55-1.36-.7-.68-2.25-2.45-2.25-2.56,0-.03.21-.06,1.02-.15ZM53.21,53.23c-.63-.94-1.42-2.21-1.38-2.24.03-.03,2.69-.76,3.89-1.08.59-.15,2.01-.65,2.75-.96.26-.11.78-.3,1.16-.44.38-.13.87-.33,1.09-.44.46-.23.44-.22.46-.15.01.06.07.4.18,1.19.17,1.2.31,3.39.26,4.26l-.02.34-.21.11c-1.28.66-4,1.67-5.71,2.11l-.32.08-.17-.18c-.49-.55-1.33-1.66-1.98-2.6ZM61.8,49.33c-.04-.28-.11-.72-.15-.97-.04-.25-.08-.51-.09-.57l-.03-.11.53-.29c.98-.53,1.73-.98,3.46-2.1.59-.39,1.58-1.08,2.11-1.49.65-.5,1.69-1.36,1.85-1.52.22-.22.23-.21.22.32,0,1.65-.31,3.5-.96,5.77-.07.24-.13.47-.13.5,0,.17-.11.35-.28.52-.28.27-.75.65-1.12.91-.18.13-.45.32-.59.44-.38.31-1.27.9-2.05,1.37-.66.4-2.5,1.4-2.52,1.37,0,0,0-.27,0-.58,0-.91-.13-2.85-.24-3.57ZM69.35,35.82c-.32-1.32-.62-2.24-1.07-3.25-.04-.08-.05-.14-.02-.16.09-.08,2.15-.65,2.92-.81.63-.13.59-.14.73.19.4.92,1.02,2.86,1.21,3.8.07.35.15.73.17.84l.05.2-.17.41c-.2.49-.29.64-.8,1.37-.61.88-1.24,1.65-1.85,2.28-.17.17-.33.35-.35.39-.07.13-.08.09-.1-.58-.05-1.52-.21-2.57-.72-4.68ZM71.11,31.24c-.59.13-1.85.49-2.4.67-.23.08-.48.15-.56.16l-.14.02-.19-.45c-.85-2.02-2.07-3.91-3.32-5.14-.21-.21-.37-.38-.36-.39.1-.06,2.73-.55,3-.56h.21s.4.35.4.35c.92.83,2.21,2.36,2.88,3.44.3.48.99,1.76.96,1.79,0,0-.22.06-.48.12ZM66.4,25.3c-.31.05-1.03.18-1.6.28l-1.04.18-.13-.09c-.07-.05-.55-.4-1.07-.77-.98-.71-1.46-1.04-1.87-1.27-.5-.28-1.75-.94-2.19-1.15-.25-.12-.46-.22-.46-.23,0,0,.17-.11.38-.23.22-.12.5-.3.63-.39.15-.11.27-.17.31-.16.04,0,.27.06.51.11.44.09,1.07.3,1.93.64.25.1.64.25.85.33.53.2.98.43,1.76.89.82.49,2.54,1.68,2.54,1.76,0,.01-.26.07-.57.12ZM32.88,30.42c-.16.07-.29.11-.29.11,0,0-.03-.12-.05-.26-.15-.97.58-4.39,1.39-6.45.34-.85.66-1.46,1.45-2.7,1.43-2.24,2.39-3.38,3.83-4.52,2.18-1.72,3.5-2.59,5.62-3.68.82-.42,1.63-.77,1.38-.6-.04.03-.23.13-.42.22-.77.38-2.37,1.45-3.39,2.27-.84.67-1.96,1.88-2.87,3.09-1.3,1.73-2.33,3.53-2.8,4.91-.72,2.1-1.32,4.73-1.39,6.04l-.03.6-.18.05c-.1.03-.34.13-.54.22-.2.09-.6.26-.89.38-.29.11-.65.26-.81.32ZM32.65,37.39c.06-.35.23-.75.48-1.08.07-.09.16-.24.21-.33.05-.09.13-.21.19-.27.13-.13.18-.26.13-.32-.02-.03-.06-.17-.07-.32-.02-.16-.08-.49-.12-.75-.11-.56-.21-1.37-.24-1.91-.02-.4.05-1.43.11-1.49.01-.01.28-.14.59-.27.31-.13.66-.29.79-.36.12-.06.23-.12.24-.12s0,.35,0,.77c0,.43,0,.98.02,1.24.02.25.05.68.07.96.08,1.21.11,1.45.27,1.86.17.44.45.79,1.16,1.42.16.14.5.48.74.75.52.58.63.65.56.36-.1-.37-.47-.85-1.1-1.39-.45-.39-.82-.78-.9-.96-.15-.33-.24-.7-.27-1.07-.02-.21-.05-.64-.08-.94-.11-1.29-.12-3.1-.03-3.16.05-.04.53-.03.75,0l.09.02v.82c-.04,1.44.04,2.19.29,3.02.18.58.26.7.76,1.21,1.39,1.4,1.85,2.04,2.35,3.25.31.75.59,1.9.92,3.77.21,1.17.25,2.69.11,3.5-.24,1.35-.79,2.43-1.38,2.75-.08.04-.25.16-.37.26-.14.11-.28.19-.37.21-.08.02-.16.04-.19.05-.05.01-.06-.04-.08-.33-.02-.19-.05-.46-.07-.59l-.04-.24.17-.28c.62-1.01.97-2.51.9-3.87-.07-1.17-.27-1.94-.75-2.74-.1-.16-.13-.25-.12-.37.01-.36-.21-.95-.46-1.21-.3-.32-.83-.44-1.23-.29-.24.08-.24.08-.21-.08.04-.2,0-.78-.08-1.01-.13-.37-.42-.62-.87-.72s-.83-.03-1.43.27l-.37.18-.28-.05c-.22-.03-.33-.03-.5,0-.12.02-.23.05-.25.05-.01,0-.01-.1,0-.21ZM33.37,53.5c-.2-.05-.39-.1-.43-.1-.37,0-1.88-.95-2.14-1.37-.26-.41-.15-1.38.21-1.79l.09-.11.12.14c.18.21.87.65,1.22.78.28.11.31.11.43.07.07-.02.12-.06.12-.08,0-.06-.41-.45-.68-.64-.15-.1-.37-.31-.53-.49-.15-.17-.33-.35-.4-.4-.27-.17-.86-1.12-1.29-2.07-.37-.83-.6-1.9-.64-2.91-.06-1.5.45-3.32,1.27-4.56.54-.81,1.47-1.59,2.14-1.78.35-.1.37-.09.22.09-.71.83-1.6,2.84-1.81,4.04-.16.93.02,1.86.32,1.75.03-.01.05-.15.05-.56,0-.59,0-.54.35-1.84.2-.73.75-1.89,1.18-2.51.4-.57,1.03-1.21,1.37-1.39.41-.22.78-.26,1.04-.09.24.15.27.21.35.58.13.58.03.93-.36,1.32-.39.4-.65.76-.94,1.31-.81,1.56-1.2,3.11-.93,3.68.05.12.11.19.16.2.06,0,.08-.03.15-.48.28-1.66,1.06-3.26,2.08-4.27.35-.35.41-.39.6-.45.51-.16.88.03,1.04.54.25.82.23.91-.91,3.81-.18.46-.29.86-.28.98.03.26.21.86.42,1.4.31.8.58,1.58.65,1.93.08.37.07.9-.03,1.12-.03.08-.07.23-.09.33-.04.27-.27.66-.55.93-.24.24-.58.43-1.13.67-.34.14-.38.17-.39.32-.01.26.3.28.81.05.19-.09.36-.15.39-.14.07.02.15.53.13.83-.02.39-.11.55-.51.87-.46.36-.53.39-1.1.45-.57.06-1.16,0-1.8-.17ZM38.09,55.97c-.84,1.07-1.41,1.63-2.13,2.06-.45.27-.49.29-.69.3-.25,0-.34-.04-.49-.25-.25-.36-.35-.93-.31-1.76.03-.6.07-.89.25-1.71l.09-.38.41-.05c.44-.05,1.04-.23,1.22-.37.28-.2.68-.82.77-1.19.06-.28.02-.74-.11-1.08l-.12-.32.14-.12c.08-.07.15-.12.17-.12s.08.11.14.25c.07.14.23.43.37.65.7,1.14.89,1.42,1.2,1.82.18.24.34.45.34.48,0,.07-.79,1.18-1.25,1.78ZM42.84,54.47c-.05-.12-.07-.24-.06-.28.01-.04,0-.16-.02-.27-.11-.48-.41-.91-.79-1.11l-.21-.11-.44.03c-.24.02-.51.04-.61.05-.1,0-.2.03-.23.05-.16.1-.39.32-.51.49l-.14.19-.12-.11c-.18-.17-1.08-1.46-1.07-1.53,0,0,.2.03.45.09.25.06.81.16,1.26.23,1.09.17,1.67.21,3.04.19h1.17s.66.81.66.81c1.38,1.71,2.46,2.78,3.64,3.62.23.17.41.32.4.34-.03.04-1.48.05-2.23.01-1.13-.06-2.4-.27-3.3-.57-.38-.12-1.2-.48-1.23-.55,0-.02.07-.2.19-.4.26-.48.31-.82.17-1.17ZM56.06,59.51c-.8.12-3.29.21-4.1.14-2.37-.19-4.51-.75-6.48-1.69-.87-.42-1.95-1.03-1.81-1.04,0,0,.15.05.33.1,1.23.39,2.54.54,4.54.5l1.33-.02.45.26c1.64.95,3.6,1.53,5.69,1.7l.25.02-.2.03ZM58.63,58.96c-.38.11-.42.11-1.2.12-2.02.03-3.5-.22-5.13-.87-.41-.16-1.64-.75-1.7-.8-.02-.02.1-.05.25-.06,1.3-.15,2.38-.37,3.67-.74.33-.09.62-.17.65-.17.03,0,.15.08.26.2.3.29,1.12.98,1.4,1.17.28.18,1.37.68,1.89.86.2.07.35.14.33.15s-.21.08-.43.14ZM60.5,58.32l-.38.16c-.47.19-.52.19-.92.04-.4-.15-1.51-.65-1.77-.8-.35-.2-1.7-1.28-1.74-1.39,0-.03.22-.11,1.37-.46,1.74-.53,1.83-.57,3.57-1.32.3-.13.63-.28.73-.34.25-.13.25-.14.2.3-.13,1.23-.53,2.79-.9,3.52l-.15.3ZM63.15,56.99c-.52.34-2.02,1.12-2.07,1.06,0,0,.03-.13.09-.28.16-.39.34-.97.42-1.31.13-.61.35-1.81.39-2.17.02-.2.06-.38.08-.4.02-.02.49-.27,1.03-.56,1.12-.59,2.7-1.54,3.42-2.04.32-.23,1.62-1.22,1.64-1.26.02-.04.09-.05.09-.02,0,.15-.65,1.57-1,2.22-1,1.85-2.71,3.84-4.1,4.77ZM72.6,45.22c-.36,1.14-1.04,2.66-1.68,3.8-1.08,1.93-1.88,2.96-3.54,4.58-1.29,1.26-2.26,2.1-1.69,1.46,1.27-1.43,2.32-3.24,2.99-5.2l.12-.34,1-.99c1.39-1.36,2.2-2.34,2.68-3.24.1-.18.18-.33.19-.33,0,0-.02.12-.07.26ZM73.1,43.1c-.22.76-1.09,2.35-1.74,3.18-.36.46-1.33,1.54-1.77,1.97-.48.47-.57.53-.52.42.11-.32.46-1.75.6-2.48.26-1.3.31-1.66.37-3.11l.07-1.38.41-.46c.23-.25.51-.56.63-.7.73-.81,1.82-2.36,2.16-3.08.11-.24.11-.24.18.6.12,1.38-.09,3.98-.41,5.05ZM78.84,42.73c-.19.34-.7.44-1.77.36-.63-.05-1.13-.18-1.98-.54-.27-.11-.63-.26-.8-.32l-.31-.12.04-.34c.02-.19.06-.53.09-.77.07-.56.13-1.83.11-2.26,0-.18-.03-.54-.05-.78-.07-1-.09-.91.14-.73.16.12.44.22.63.21.13,0,.19.05.19.15,0,.04.03.22.08.4.13.54.55.97,1.01,1.05.3.05.87,0,1.15-.11.13-.05.23-.08.24-.07.04.06.41.72.58,1,.67,1.18.94,2.37.66,2.86ZM77.14,38.52c-.37.1-.8.1-.98.01-.26-.13-.55-.58-.59-.92v-.15s.26-.02.26-.02c.34-.02.64-.16.88-.38.18-.17.19-.22.08-.29-.1-.06-.39-.02-.59.08-.52.28-1.19.22-1.59-.13l-.13-.12.08-.09c.56-.59,1.2-2.13,1.27-3,.01-.15.02-.03.01.29,0,.73.04.89.36,1.21.24.24.38.29.34.12-.12-.61-.1-1.56.07-2.26.3-1.29.37-1.7.32-2.21l-.02-.21.08.08c.1.1.33.19.4.16.19-.08-.18-.7-.89-1.52-.4-.47-.45-.55-.64-.96-.24-.52-.29-.73-.27-1.15.02-.42.12-.66.33-.77.16-.08.21-.08.53,0,.62.15.56.1,1.58,1.19.98,1.05,1.08,1.18,1.26,1.55.47,1.02.56,2.11.28,3.5-.06.26-.12.58-.14.7-.05.29-.29.96-.51,1.42-.23.48-.23.6-.04.6.22,0,.42-.28.71-.98l.14-.34h.14c.17,0,.41.23.61.58l.14.25-.02.38-.02.37-.22.41c-.55,1.04-2.13,2.32-3.22,2.6Z" fill="#34162d"/>
    </g>
    <g>
      <path d="M62.68,30.49c-.1.05-.11.13-.07.68.03.54.02.78-.09,1.16-.07.27-.22.43-.55.62l-.19.11h-.52c-.51,0-.52,0-.74-.1-.39-.18-.74-.47-1.01-.85l-.08-.1-.09.09c-.11.12-.11.19,0,.51.22.61.62.96,1.33,1.19.29.09.9.08,1.2-.02.74-.25,1.09-.6,1.36-1.35.12-.33.12-.34.12-.86,0-.49,0-.53-.07-.62-.04-.05-.11-.16-.16-.25-.15-.24-.29-.31-.46-.22Z" fill="#34162d"/>
      <path d="M55.46,33.52c-.12.08-.13.1-.16.64-.08,1.07-.53,1.72-1.34,1.91-.8.19-1.55-.06-2.37-.79-.28-.24-.36-.28-.47-.22-.13.07-.15.35-.05.52.11.19.53.64.73.77.19.13.57.32.89.45.29.12,1.29.11,1.66-.02.28-.1.73-.36.9-.54.17-.18.55-1.04.63-1.44.08-.41.08-.94.01-1.1-.09-.21-.28-.29-.44-.19Z" fill="#34162d"/>
      <path d="M64.41,34.84c-.16.17-.06.33.22.37.21.03.2,0,.1.45-.14.57-.62,1.68-.9,2.09-.08.1-.22.3-.31.44-.4.57-.85,1.02-1.58,1.58-.19.15-.42.33-.51.4-.59.46-2.45,1.16-3.07,1.16-.11,0-.42.03-.69.07-1.41.2-2.86.03-4.25-.5-.58-.22-.59-.23-.53-.41.09-.26.04-.46-.11-.46-.21,0-.87,1.05-.87,1.39,0,.11.11.21.22.21.1,0,.19-.1.34-.38.04-.07.08-.12.09-.12,0,0,.21.08.44.18.77.33,1.82.62,2.59.72.56.07,2.01.06,2.4-.03.19-.04.46-.09.61-.11.83-.1,2.27-.69,2.99-1.21.1-.08.27-.19.38-.25.32-.19.63-.46,1.17-1.02,1.06-1.1,1.72-2.29,2.08-3.72.04-.17.08-.31.08-.31,0,0,.13.02.27.05.48.12.68.04.49-.19-.29-.36-1.41-.63-1.63-.39Z" fill="#34162d"/>
    </g>
  </g>
  <polygon points="55.59 58.14 54.67 54.27 53.35 49.69 53.35 48.06 54.74 48.04 60.71 48.07 62.15 48.42 68.75 48.36 72.7 48.14 72.79 53.55 61.49 62.39 56.3 62.01 55.59 58.14" fill="#c7ff15"/>
  <g>
    <path d="M57.74,63.71l-1.76-12.61c-.1-.62-.29-.81-.9-.98-.21-.05-.28-.16-.24-.34.03-.19.17-.29.34-.29.24,0,1.14.09,2.02.09,1.03,0,2.02-.09,2.27-.09.21,0,.28.12.24.31-.03.21-.16.29-.34.33-.98.16-1.27.38-1.19,1.08l1.24,10.06c.03.16.07.16.12.04l2.38-4.93c.1-.19.12-.36.1-.53l-.5-4.74c-.07-.62-.31-.83-.9-.98-.19-.05-.26-.16-.22-.34.03-.19.17-.29.33-.29.31,0,.95.09,2.21.09.91,0,1.84-.09,2.1-.09.21,0,.28.12.24.31-.02.15-.12.29-.31.33-.98.17-1.33.4-1.26,1.08l.88,9.8c.02.14.05.14.1-.02l3.91-9.58c.33-.83.02-1.14-.86-1.29-.21-.04-.28-.17-.24-.34.04-.19.17-.29.36-.29.17,0,.9.07,1.74.07s1.57-.09,1.72-.09c.19,0,.28.12.24.31-.04.19-.12.29-.33.34-.86.22-1.34.38-1.69,1.17l-5.22,12.42c-.17.41-.43.59-.81.59s-.62-.17-.65-.59l-.62-5.84c-.02-.16-.05-.16-.12-.03l-2.89,5.87c-.21.41-.43.59-.83.59s-.62-.17-.67-.59Z" fill="#34162d"/>
    <path d="M68.91,56.91c.84-4.67,3.51-7.7,6.77-7.7s4.81,3.03,3.96,7.7c-.84,4.65-3.5,7.67-6.75,7.67s-4.82-3.01-3.98-7.67ZM77.4,56.91c.76-4.13.03-6.92-1.86-6.92s-3.65,2.79-4.41,6.92c-.74,4.12,0,6.89,1.91,6.89s3.62-2.77,4.36-6.89Z" fill="#34162d"/>
    <path d="M78.21,64.02c.02-.14.09-.24.29-.29.46-.1,1.07-.28,1.22-1.17l2.12-11.68c.09-.55-.43-.72-.83-.81-.26-.05-.28-.17-.26-.31.03-.12.12-.28.38-.28s.76.07,2.1.07c1.03,0,1.93-.07,2.5-.07,2.38,0,3.65,1.5,3.24,3.81-.33,1.86-1.46,3.2-3.03,3.82.48.53.81,2.19,1.03,3.31.12.65.33,1.77.52,2.64.1.43.4.53.86.65.19.05.26.14.22.31-.02.17-.14.28-.33.28l-1.15-.03c-.41,0-.88.03-1.02.03-.38,0-.58-.12-.65-.41-.17-.74-.48-2.65-.59-3.36-.34-2.55-.64-3.22-1.4-3.22-.52,0-.71.1-.79.53l-.86,4.72c-.16.9.38,1.07.81,1.17.19.05.22.16.19.29-.02.12-.1.28-.31.28-.19,0-1.1-.1-2.02-.1s-1.86.1-2.05.1c-.21,0-.24-.16-.21-.28ZM86.72,53.39c.4-2.17-.22-3.22-1.79-3.22-.57,0-.91.17-1.03.79l-.84,4.65c-.16.9.34,1.03,1.03,1.03,1.36,0,2.26-1.12,2.64-3.26Z" fill="#34162d"/>
    <path d="M88.35,64.02c.04-.14.1-.24.31-.29.46-.1,1.05-.28,1.22-1.17l2.05-11.33c.17-.91-.33-1.05-.79-1.17-.21-.05-.24-.16-.21-.29.02-.12.1-.28.31-.28.19,0,1.1.1,2.02.1s1.86-.1,2.05-.1c.21,0,.24.16.21.28-.02.14-.09.24-.29.29-.5.12-1.05.26-1.22,1.17l-2.03,11.2c-.16.93.36,1.14,1.34,1.14,1.72,0,2.6-1.29,3.26-2.65.19-.36.26-.43.4-.43.16,0,.22.09.17.43l-.31,1.5c-.1.55-.12.9-.17,1.19-.1.53-.4.71-.95.71-.74,0-1.86-.07-3.26-.07-.57,0-1.24-.02-1.83,0-.91,0-1.88.07-2.05.07-.21,0-.24-.16-.22-.28Z" fill="#34162d"/>
    <path d="M96.84,64.02c.04-.14.1-.26.36-.31.43-.09,1.02-.26,1.12-.81l2.17-12.02c.1-.55-.43-.72-.83-.81-.24-.05-.28-.17-.24-.31.02-.12.1-.28.36-.28.22,0,1.02.07,2.15.07s2.19-.07,2.96-.07c3.43,0,4.94,2.74,4.08,7.42-.84,4.67-3.34,7.39-6.77,7.39-.72,0-1.71-.05-2.7-.05-1.14,0-1.98.05-2.39.05-.26,0-.29-.16-.28-.28ZM106.76,56.91c.79-4.43-.12-6.74-2.67-6.74-.88,0-1.43.22-1.62,1.22l-2,11.09c-.19.98.38,1.12,1.19,1.12,2.55,0,4.31-2.29,5.1-6.7Z" fill="#34162d"/>
    <path d="M36.63,78.3c.03-.19.15-.33.36-.38.48-.1,1.02-.28,1.19-1.17l2.24-11.15c.12-.57-.07-.79-.74-.95-.21-.05-.31-.19-.28-.43.05-.24.21-.38.38-.38.28,0,.64.03,1.9.03.64,0,1.03-.03,1.26-.03.38,0,.5.05.55.62l.88,8.61c.02.16.05.16.1.02l3.84-8.65c.24-.55.36-.6.69-.6.21,0,.72.03,1.43.03,1.29,0,1.72-.03,1.98-.03.22,0,.29.19.28.36-.03.19-.16.34-.38.4-.6.14-1.1.33-1.21,1l-1.81,11.15c-.14.9.29,1.03.76,1.17.21.05.26.19.22.38-.03.19-.15.36-.36.36-.29,0-1-.1-2.22-.1s-1.91.1-2.17.1c-.21,0-.28-.17-.24-.36.03-.19.14-.33.36-.38.48-.12.72-.28.86-1.17l1.33-8.15c.02-.16,0-.16-.05-.02-1.12,2.52-2.38,5.22-3.43,7.3-.41.83-.65,1.22-1.29,1.22s-.79-.4-.91-1.22c-.34-2.39-.62-4.89-.83-7.32-.02-.16-.03-.14-.07,0l-1.64,8.18c-.17.9.41,1.03,1.05,1.17.21.04.26.19.22.38-.03.19-.17.36-.38.36-.26,0-.83-.1-1.76-.1s-1.62.1-1.88.1c-.21,0-.26-.17-.24-.36Z" fill="#34162d"/>
    <path d="M50.09,78.31c.03-.21.15-.34.38-.4.52-.12,1.02-.28,1.1-.83l2.12-11.68c.1-.55-.34-.71-.81-.83-.21-.05-.28-.19-.22-.4.02-.19.17-.34.38-.34.24,0,1.05.1,2.38.1,1.21,0,2.07-.1,2.29-.1.21,0,.29.16.26.34-.03.21-.15.34-.38.4-.52.12-1,.28-1.1.83l-2.12,11.68c-.09.55.34.71.81.83.21.05.28.19.24.4-.03.19-.17.34-.38.34-.22,0-1.05-.1-2.26-.1-1.34,0-2.19.1-2.43.1-.21,0-.29-.16-.26-.34Z" fill="#34162d"/>
    <path d="M54.62,78.3c.03-.22.22-.34.41-.38.84-.15,1.4-.29,1.83-.9l3.88-5.36c.1-.14.1-.28.07-.41l-1.96-5.65c-.22-.64-.53-.81-1.29-1.02-.19-.05-.34-.17-.29-.41.03-.22.19-.33.38-.33.38,0,1.46.07,2.69.07,1.48,0,2.46-.07,2.86-.07.19,0,.33.12.29.33-.05.22-.21.36-.45.41-.93.22-1.07.6-.84,1.22l.91,2.69c.05.16.12.16.21.03l1.96-2.86c.45-.64.28-.9-.53-1.12-.21-.05-.34-.15-.29-.4.03-.19.19-.31.34-.31.34,0,1.12.07,2.21.07.93,0,1.93-.07,2.22-.07.19,0,.29.12.26.31-.05.26-.22.36-.4.4-1.03.22-1.45.36-2,1.15l-3.19,4.55c-.1.14-.1.28-.07.41l2.12,6.24c.24.71.9.86,1.65,1.02.26.05.36.17.33.4-.04.22-.19.34-.38.34-.4,0-1.12-.05-2.69-.05-.95,0-2.72.05-3.24.05-.19,0-.29-.14-.26-.36.03-.22.19-.33.4-.36.9-.17,1.19-.46,1-1.03l-1.22-3.53c-.05-.14-.12-.14-.21-.02l-2.52,3.51c-.41.57-.29.9.74,1.05.22.04.31.17.28.38-.03.22-.21.36-.38.36-.33,0-1.48-.05-2.4-.05s-1.83.05-2.14.05c-.19,0-.33-.12-.29-.36Z" fill="#34162d"/>
    <path d="M68.48,78.3c.03-.19.15-.33.36-.38.46-.1,1.02-.28,1.14-1l2.03-11.23c.09-.48-.07-.76-.57-.76-1.4,0-2,1.02-2.45,1.93-.17.36-.36.46-.53.46-.19,0-.29-.12-.26-.34l.24-1.24c.09-.48.14-.96.22-1.38.07-.38.28-.52.69-.52.76,0,2.38.21,4.36.21s3.81-.21,4.43-.21c.4,0,.57.14.5.52-.09.41-.21.9-.29,1.38l-.21,1.24c-.03.22-.16.34-.34.34-.17,0-.33-.1-.36-.46-.12-.91-.4-1.93-1.79-1.93-.5,0-.76.28-.84.76l-2.03,11.23c-.12.72.4.9.79,1,.19.05.26.19.22.38s-.17.36-.38.36c-.22,0-1.05-.1-2.31-.1s-2.15.1-2.36.1c-.22,0-.29-.16-.26-.36Z" fill="#34162d"/>
    <path d="M73.3,78.28c.04-.24.19-.36.4-.4.36-.07.88-.17,1.15-.76l5.86-12.63c.24-.53.64-.72,1.19-.72s.83.19.88.72l.95,12.47c.05.69.38.79.88.91.19.05.29.17.26.41-.05.26-.21.36-.38.36-.29,0-.88-.07-2.1-.07-1.31,0-2.33.07-2.62.07-.21,0-.31-.16-.28-.38s.19-.36.4-.4c.53-.1.98-.26.95-.93l-.17-3.19c-.02-.16-.1-.22-.26-.22h-2.31c-.15,0-.26.07-.33.21l-1.43,3.22c-.05.1-.09.21-.12.33-.05.33.17.45.81.57.21.03.29.19.24.41-.04.24-.21.38-.4.38-.26,0-.79-.07-1.72-.07s-1.4.07-1.62.07c-.16,0-.28-.14-.22-.38ZM80.57,72.28l-.22-4.05c-.02-.15-.05-.15-.1-.02l-1.83,4.08c-.05.14,0,.21.15.21h1.79c.16,0,.22-.09.21-.22Z" fill="#34162d"/>
    <path d="M82.94,78.31c.04-.21.16-.34.38-.4.52-.12,1-.28,1.1-.83l2.1-11.59c.1-.6-.38-.81-.79-.9-.24-.05-.29-.21-.26-.41.03-.19.15-.34.41-.34.29,0,1,.07,2.22.07s2.26-.07,2.84-.07c2.57,0,3.93,1.69,3.46,4.27-.52,2.88-2.39,4.75-4.79,4.75-.6,0-1-.17-1.27-.38-.19-.14-.29-.07-.34.17l-.79,4.43c-.1.55.33.71.81.83.19.05.28.19.22.4-.04.19-.17.34-.38.34-.22,0-1.05-.1-2.24-.1-1.34,0-2.19.1-2.43.1-.21,0-.29-.16-.26-.34ZM91.45,68.17c.43-2.31.05-3.38-1.21-3.38-.52,0-.83.14-.93.64l-.93,5.2c-.1.59-.02,1.21.88,1.21,1.09,0,1.72-1.07,2.19-3.67Z" fill="#34162d"/>
    <path d="M92,78.3c.04-.19.16-.33.36-.38.46-.1,1-.28,1.14-1l2.08-11.56c.1-.52-.31-.72-.71-.9-.29-.12-.38-.28-.34-.48.03-.21.24-.33.5-.29.21.05.55.17,1.33.21,1,.03,2.29.02,3,.02,1.24,0,2.55-.07,3.38-.07.4,0,.57.14.5.52-.07.41-.17.78-.26,1.26l-.21,1.27c-.03.19-.19.26-.33.26-.17,0-.31-.07-.38-.43-.22-1-.76-1.88-2.27-1.88-.86,0-1.34.17-1.5,1l-.67,3.77c-.1.57-.07.67.64.67h.76c.91,0,1.41-1,1.65-1.55.14-.29.26-.4.45-.4.16,0,.33.07.26.4-.05.28-.31,1.36-.43,2.03-.1.6-.22,1.6-.28,1.89-.05.26-.19.34-.36.34-.19,0-.31-.09-.34-.38-.05-.55-.21-1.36-1.14-1.36h-.74c-.71,0-.79.09-.9.67l-.81,4.5c-.17.91.19,1.22,1.29,1.22,1.64,0,2.34-1.05,3-2.41.19-.36.31-.43.48-.43s.31.09.24.43l-.31,1.5-.17,1.19c-.1.53-.38.71-.95.71-.72,0-2.19-.05-3.58-.05h-1.76c-1.28,0-2.15.07-2.36.07-.22,0-.29-.16-.26-.36Z" fill="#34162d"/>
  </g>
</svg>